M48
INCH
T18C0.128
T24C0.030
T25C0.015
T26C0.038
T27C0.043
T28C0.028
T29C0.035
%
T25
X010811Y016929
X011811Y016929
X012811Y016929
X013811Y016929
X025378Y022834
X026378Y022834
X027378Y022834
X028378Y022834
X029378Y022834
X030378Y022834
X031378Y022834
X032378Y022834
T28
X013763Y003464
X013763Y005464
X012984Y007751
X009984Y007751
X012984Y008751
X012984Y009751
X012984Y010751
X012984Y011751
X012984Y012751
X012984Y013751
X009984Y013751
X009984Y012751
X009984Y011751
X009984Y010751
X009984Y009751
X009984Y008751
X023500Y002909
X023500Y003909
X023500Y004909
X023500Y005909
X023500Y006909
X017500Y021909
X017500Y020909
X017500Y019909
X017500Y018909
X017500Y017909
X017500Y016909
X017500Y015909
X017500Y014909
X017500Y013909
X017500Y012909
X017500Y011909
X017500Y010909
X017500Y009909
X017500Y008909
X017500Y007909
X017500Y006909
X017500Y005909
X017500Y004909
X017500Y003909
X017500Y002909
X023500Y007909
X023500Y008909
X023500Y009909
X023500Y010909
X023500Y011909
X023500Y012909
X023500Y013909
X023500Y014909
X023500Y015909
X023500Y016909
X023500Y017909
X023500Y018909
X023500Y019909
X023500Y020909
X023500Y021909
T24
X007925Y019688
X011925Y019688
X007925Y020688
X011925Y020688
X007925Y021688
X011925Y021688
X005511Y006724
X006511Y006224
X005511Y005724
X003023Y013275
X001023Y013275
X003023Y011275
X001023Y011275
X001744Y000843
X005744Y000843
X006511Y010444
X006511Y014444
X011834Y003389
X006511Y005224
X005511Y004724
X006511Y004224
X005511Y003724
X006511Y003224
X009834Y003389
X011834Y005464
X009834Y005464
X011480Y000851
X007480Y000851
X010523Y014775
X012523Y014775
X027000Y009409
X029000Y005409
X033000Y005409
X033129Y012874
X033129Y014874
X033000Y009409
X031000Y009409
X029000Y009409
X031000Y005409
X031629Y011874
X031629Y015874
X027000Y005409
X021787Y023015
X019787Y023015
T29
X020500Y003909
X015000Y006409
X016000Y006409
X016000Y004409
X025000Y007409
X020500Y008409
X018500Y007909
X009000Y007909
X005500Y008909
X001000Y009909
X008657Y009751
X007480Y009842
X018500Y006909
X007874Y001968
X010000Y006409
X032000Y001409
X030500Y013409
X026000Y007409
X025500Y012909
X008000Y012409
X002000Y012409
X022000Y012909
X011000Y022909
X010244Y019165
X007500Y022909
X009000Y018409
X012500Y015909
X004500Y013409
X004500Y015409
X018500Y016909
X018500Y017909
X026500Y014409
X016000Y009909
X015500Y010909
X016000Y020909
X020000Y013909
X020000Y011909
X019500Y010909
X015000Y017909
X016000Y014909
X015000Y016909
X016000Y016909
X019000Y014909
T26
X013500Y020909
X014500Y020909
X013500Y019909
X014500Y019909
X013500Y021909
X014500Y021909
X010236Y001968
X009236Y001968
X028000Y015409
X029000Y015409
X028000Y014409
X028000Y013409
X028000Y012409
X028000Y011409
X029000Y014409
X029000Y013409
X029000Y012409
X029000Y011409
T27
X004023Y010275
X005023Y010275
X029000Y002909
X029000Y003909
X033000Y002909
X033000Y003909
X031000Y002909
X031000Y003909
X027000Y002909
X027000Y003909
T18
X003011Y007224
X003011Y002724
M30
