G04 start of page 2 for group 0 idx 0 *
G04 Title: (unknown), component *
G04 Creator: pcb 20110918 *
G04 CreationDate: Sat 31 Dec 2011 12:16:43 AM GMT UTC *
G04 For: andy *
G04 Format: Gerber/RS-274X *
G04 PCB-Dimensions: 346457 244094 *
G04 PCB-Coordinate-Origin: lower left *
%MOIN*%
%FSLAX25Y25*%
%LNTOP*%
%ADD148C,0.0430*%
%ADD147C,0.0280*%
%ADD146C,0.0380*%
%ADD145C,0.0300*%
%ADD144C,0.0350*%
%ADD143R,0.0512X0.0512*%
%ADD142R,0.0315X0.0315*%
%ADD141R,0.0394X0.0394*%
%ADD140R,0.0276X0.0276*%
%ADD139C,0.0650*%
%ADD138C,0.1280*%
%ADD137C,0.0700*%
%ADD136C,0.0600*%
%ADD135C,0.0550*%
%ADD134C,0.0001*%
%ADD133C,0.0250*%
%ADD132C,0.0400*%
G54D132*X20000Y109094D02*X10000Y99094D01*
X30000Y112519D02*X30236Y112755D01*
X20000Y114094D02*Y109094D01*
X25000Y119094D02*X20000Y114094D01*
X55000Y89094D02*X80000D01*
X45000Y114094D02*X40000Y119094D01*
G54D133*X57441Y8432D02*X43307Y22566D01*
G54D132*X78740Y67834D02*Y19685D01*
G54D133*X43307Y22566D02*Y88582D01*
X51181Y96456D01*
X74803D01*
Y98425D01*
G54D132*X80000Y89094D02*X90000Y79094D01*
X86614Y78740D02*X78740Y86614D01*
X82677Y82677D01*
X90000Y79094D02*X78740Y67834D01*
Y66929D02*Y86614D01*
Y70866D02*X86614Y78740D01*
X82677Y82677D02*Y74803D01*
X86575Y97519D02*X70000Y114094D01*
X155000Y109094D02*X150000Y104094D01*
X114803Y8511D02*X125977Y19685D01*
X125984D01*
X74803Y8511D02*X106936D01*
X118110Y19685D01*
X106299Y31496D01*
X114173Y15748D02*Y23622D01*
X119094Y34645D02*X118346Y33897D01*
X125984Y19685D02*Y66929D01*
X106299Y31496D02*Y57795D01*
X150000Y104094D02*Y64094D01*
X160000Y99094D02*Y64094D01*
X140000D02*X160000Y44094D01*
X106299Y57795D02*X100000Y64094D01*
X114173Y116141D02*Y104330D01*
X140000Y114094D02*Y64094D01*
X125984Y66929D02*X114173Y78740D01*
Y106299D01*
X250000Y124094D02*X255000Y129094D01*
X265000D02*Y144094D01*
X260000Y74094D02*Y124094D01*
X250000Y74094D02*Y124094D01*
X260000D02*X265000Y129094D01*
X230000Y14094D02*X320000D01*
X205000Y39094D02*X230000Y14094D01*
X200000Y119094D02*X210000D01*
X220000Y129094D01*
X190000Y114094D02*X195000Y109094D01*
X190000Y149094D02*Y114094D01*
G54D133*X165000Y124094D02*X180000D01*
X185000Y119094D01*
G54D132*X225000Y164094D02*X200000Y139094D01*
Y79094D02*X185000D01*
X205000Y84094D02*X200000Y79094D01*
G54D133*X180000Y74094D02*X185000Y69094D01*
Y119094D02*Y89094D01*
X180000Y84094D01*
Y74094D01*
G54D132*X330945Y149094D02*X331299Y148740D01*
X305000Y134094D02*Y109094D01*
X310000Y104094D01*
X316299Y118740D02*X319646D01*
X325000Y124094D01*
Y174094D01*
X310000Y104094D02*Y94094D01*
X325000Y174094D02*X290000Y209094D01*
X260000D01*
X240000Y229094D01*
X230000D01*
X225000Y224094D01*
Y164094D01*
G54D133*X185000Y179094D02*Y224094D01*
X175000Y234094D01*
X185000Y169094D02*X195000Y179094D01*
Y224094D01*
X180000Y239094D01*
G54D132*X125000Y184094D02*X130000Y189094D01*
X105000Y224094D02*Y194214D01*
X119252Y196889D02*X117205D01*
G54D133*X102440Y191654D03*
X75000Y179094D02*X150000D01*
X86771Y187323D02*X90000Y184094D01*
G54D132*X105000Y194214D02*X102440Y191654D01*
X90000Y184094D02*X125000D01*
G54D133*X78348Y195985D02*X79252Y196889D01*
G54D132*X160000Y209094D02*Y219094D01*
X150000Y229094D01*
X131457D01*
X130000Y189094D02*X155000D01*
G54D133*X105000Y234094D02*Y232637D01*
G54D132*X131457Y229094D02*X119252Y216889D01*
X110000Y229094D02*X105000Y224094D01*
G54D133*X175000Y234094D02*X105000D01*
X180000Y239094D02*X85000D01*
X75000Y229094D01*
X77009Y204646D02*X105000Y232637D01*
X60000Y149565D02*X65117Y144448D01*
G54D132*X70000Y114094D02*X45000D01*
X40000Y119094D02*X25000D01*
X45000Y154094D02*Y134094D01*
X65471Y144094D02*X65117Y144448D01*
X20000Y124094D02*X106220D01*
G54D133*X71102Y182992D02*X75000Y179094D01*
X66771Y182992D02*X71102D01*
X66771Y187323D02*X86771D01*
X66771Y191654D02*X102440D01*
X66771Y204646D02*X77009D01*
X66771Y195985D02*X78348D01*
G54D132*X124016Y159448D02*X95000Y159094D01*
X80000Y144094D01*
X65471D01*
G54D133*X66771Y200315D02*X61221D01*
X60000Y199094D01*
Y149565D01*
G54D132*X155000Y189094D02*X160000Y184094D01*
Y169094D01*
X150000Y124094D02*X140000Y114094D01*
X150000Y169094D02*Y124094D01*
G54D133*X160000Y129094D02*X165000Y124094D01*
G54D132*X160000Y149094D02*Y129094D01*
X106220Y124094D02*X114173Y116141D01*
G54D134*G36*
X215124Y232907D02*Y227407D01*
X220624D01*
Y232907D01*
X215124D01*
G37*
G54D135*X197874Y230157D03*
G54D136*X145000Y219094D03*
G54D134*G36*
X172000Y222094D02*Y216094D01*
X178000D01*
Y222094D01*
X172000D01*
G37*
G54D136*X145000Y209094D03*
Y199094D03*
X175000Y209094D03*
Y199094D03*
Y189094D03*
Y179094D03*
Y169094D03*
G54D137*X55118Y67243D03*
X65118Y62243D03*
X55118Y57243D03*
X65118Y52243D03*
X55118Y47243D03*
X65118Y42243D03*
X55118Y37243D03*
X65118Y32243D03*
G54D134*G36*
X99362Y22685D02*Y16685D01*
X105362D01*
Y22685D01*
X99362D01*
G37*
G54D136*X92362Y19685D03*
G54D134*G36*
X72053Y11261D02*Y5761D01*
X77553D01*
Y11261D01*
X72053D01*
G37*
G54D135*X114803Y8511D03*
G54D138*X30118Y27243D03*
G54D134*G36*
X14691Y11182D02*Y5682D01*
X20191D01*
Y11182D01*
X14691D01*
G37*
G54D135*X57441Y8432D03*
G54D134*G36*
X76502Y199639D02*Y194139D01*
X82002D01*
Y199639D01*
X76502D01*
G37*
G54D135*X119252Y196889D03*
G54D134*G36*
X76502Y209639D02*Y204139D01*
X82002D01*
Y209639D01*
X76502D01*
G37*
G54D135*X119252Y206889D03*
G54D134*G36*
X76502Y219639D02*Y214139D01*
X82002D01*
Y219639D01*
X76502D01*
G37*
G54D135*X119252Y216889D03*
G54D134*G36*
X132000Y222094D02*Y216094D01*
X138000D01*
Y222094D01*
X132000D01*
G37*
G54D136*X135000Y209094D03*
Y199094D03*
G54D134*G36*
X105267Y172291D02*Y166291D01*
X111267D01*
Y172291D01*
X105267D01*
G37*
G54D136*X118267Y169291D03*
X128267D03*
X138267D03*
G54D138*X30118Y72243D03*
G54D134*G36*
X27486Y135505D02*Y130005D01*
X32986D01*
Y135505D01*
X27486D01*
G37*
G54D135*X10236Y132755D03*
G54D134*G36*
X27486Y115505D02*Y110005D01*
X32986D01*
Y115505D01*
X27486D01*
G37*
G54D135*X10236Y112755D03*
G54D134*G36*
X36986Y106005D02*Y99505D01*
X43486D01*
Y106005D01*
X36986D01*
G37*
G54D139*X50236Y102755D03*
G54D134*G36*
X62367Y107198D02*Y101698D01*
X67867D01*
Y107198D01*
X62367D01*
G37*
G54D135*X65117Y144448D03*
G54D134*G36*
X266750Y32344D02*Y25844D01*
X273250D01*
Y32344D01*
X266750D01*
G37*
G54D139*X270000Y39094D03*
G54D134*G36*
X267250Y56844D02*Y51344D01*
X272750D01*
Y56844D01*
X267250D01*
G37*
G36*
X286750Y32344D02*Y25844D01*
X293250D01*
Y32344D01*
X286750D01*
G37*
G36*
X326750D02*Y25844D01*
X333250D01*
Y32344D01*
X326750D01*
G37*
G36*
X306750D02*Y25844D01*
X313250D01*
Y32344D01*
X306750D01*
G37*
G54D139*X290000Y39094D03*
G54D134*G36*
X287250Y56844D02*Y51344D01*
X292750D01*
Y56844D01*
X287250D01*
G37*
G36*
X327250D02*Y51344D01*
X332750D01*
Y56844D01*
X327250D01*
G37*
G36*
X307250D02*Y51344D01*
X312750D01*
Y56844D01*
X307250D01*
G37*
G54D139*X330000Y39094D03*
X310000D03*
G54D135*X330000Y94094D03*
X310000D03*
X290000D03*
X270000D03*
G54D134*G36*
X277000Y157094D02*Y151094D01*
X283000D01*
Y157094D01*
X277000D01*
G37*
G54D136*X290000Y154094D03*
X280000Y144094D03*
X290000D03*
X280000Y134094D03*
X290000D03*
X280000Y124094D03*
X290000D03*
X280000Y114094D03*
X290000D03*
G54D134*G36*
X313549Y121490D02*Y115990D01*
X319049D01*
Y121490D01*
X313549D01*
G37*
G36*
X328549Y131490D02*Y125990D01*
X334049D01*
Y131490D01*
X328549D01*
G37*
G54D135*X331299Y148740D03*
X316299Y158740D03*
G54D134*G36*
X134636Y37645D02*Y31645D01*
X140636D01*
Y37645D01*
X134636D01*
G37*
G54D136*X137636Y54645D03*
G54D134*G36*
X115596Y36647D02*Y31147D01*
X121096D01*
Y36647D01*
X115596D01*
G37*
G36*
Y57395D02*Y51895D01*
X121096D01*
Y57395D01*
X115596D01*
G37*
G54D135*X98346Y33897D03*
Y54645D03*
G54D136*X99842Y77519D03*
G54D134*G36*
X126842Y80519D02*Y74519D01*
X132842D01*
Y80519D01*
X126842D01*
G37*
G54D136*X129842Y87519D03*
Y97519D03*
Y107519D03*
X99842D03*
Y97519D03*
Y87519D03*
X129842Y117519D03*
X99842D03*
X129842Y127519D03*
Y137519D03*
X99842D03*
Y127519D03*
G54D134*G36*
X102486Y150505D02*Y145005D01*
X107986D01*
Y150505D01*
X102486D01*
G37*
G54D135*X125236Y147755D03*
G54D136*X175000Y159094D03*
Y149094D03*
Y139094D03*
Y129094D03*
Y119094D03*
Y109094D03*
Y99094D03*
Y89094D03*
Y79094D03*
Y69094D03*
Y59094D03*
Y49094D03*
Y39094D03*
Y29094D03*
X235000D03*
Y39094D03*
Y49094D03*
Y59094D03*
Y69094D03*
Y79094D03*
Y89094D03*
Y99094D03*
Y109094D03*
Y119094D03*
Y129094D03*
Y139094D03*
Y149094D03*
Y159094D03*
Y169094D03*
Y179094D03*
Y189094D03*
Y199094D03*
Y209094D03*
Y219094D03*
G54D134*G36*
X250780Y231346D02*Y225346D01*
X256780D01*
Y231346D01*
X250780D01*
G37*
G54D136*X263780Y228346D03*
X273780D03*
X283780D03*
X293780D03*
X303780D03*
X313780D03*
X323780D03*
G54D140*X65787Y191654D02*X67756D01*
X65787Y195985D02*X67756D01*
X65787Y200315D02*X67756D01*
X65787Y204646D02*X67756D01*
X65787Y178662D02*X67756D01*
X65787Y182992D02*X67756D01*
X65787Y187323D02*X67756D01*
G54D141*X66378Y172560D02*X67166D01*
G54D140*X65787Y208977D02*X67756D01*
X65787Y213308D02*X67756D01*
G54D142*X25433Y216850D02*Y216064D01*
G54D141*X5551Y216456D02*X12639D01*
G54D143*X6140Y163307D02*X8503D01*
G54D141*X49449Y216457D02*X50237D01*
G54D136*X205000Y39094D03*
X150000Y64094D03*
X160000D03*
Y44094D03*
X250000Y74094D03*
X205000Y84094D03*
X185000Y79094D03*
X90000D03*
X55000Y89094D03*
X10000Y99094D03*
X86575Y97519D03*
X74803Y98425D03*
X185000Y69094D03*
X78740Y19685D03*
X100000Y64094D03*
X320000Y14094D03*
X305000Y134094D03*
X260000Y74094D03*
X255000Y129094D03*
X80000Y124094D03*
X20000D03*
X220000Y129094D03*
X110000Y229094D03*
X102440Y191654D03*
X75000Y229094D03*
X90000Y184094D03*
X124016Y159448D03*
X45000Y134094D03*
Y154094D03*
X185000Y169094D03*
Y179094D03*
X265000Y144094D03*
X160000Y99094D03*
X155000Y109094D03*
X160000Y209094D03*
X200000Y139094D03*
Y119094D03*
X195000Y109094D03*
X150000Y179094D03*
X160000Y149094D03*
X150000Y169094D03*
X160000D03*
X190000Y149094D03*
G54D144*G54D145*G54D146*G54D147*G54D146*G54D147*G54D145*G54D146*G54D145*G54D138*G54D145*G54D146*G54D138*G54D145*G54D148*G54D145*G54D148*G54D145*G54D148*G54D145*G54D148*G54D145*G54D146*G54D145*G54D147*G54D145*G54D147*G54D145*G54D147*G54D146*M02*
