G04 start of page 17 for group -3984 idx -3984 *
G04 Title: (unknown), fab *
G04 Creator: pcb 20100929 *
G04 CreationDate: Thu 24 Nov 2011 04:56:09 PM GMT UTC *
G04 For: andy *
G04 Format: Gerber/RS-274X *
G04 PCB-Dimensions: 346457 244094 *
G04 PCB-Coordinate-Origin: lower left *
%MOIN*%
%FSLAX25Y25*%
%LNFAB*%
%ADD40C,0.0100*%
%ADD44R,0.0080X0.0080*%
%ADD45C,0.0060*%
G54D44*X30118Y75443D02*Y69043D01*
X26918Y72243D02*X33318D01*
X28518Y73843D02*X31718D01*
X28518D02*Y70643D01*
X31718D01*
Y73843D02*Y70643D01*
X30118Y30443D02*Y24043D01*
X26918Y27243D02*X33318D01*
X28518Y28843D02*X31718D01*
X28518D02*Y25643D01*
X31718D01*
Y28843D02*Y25643D01*
X15000Y258544D02*Y252144D01*
X11800Y255344D02*X18200D01*
X13400Y256944D02*X16600D01*
X13400D02*Y253744D01*
X16600D01*
Y256944D02*Y253744D01*
G54D45*X135000Y257594D02*Y256844D01*
X136500Y255344D01*
X138000Y256844D01*
Y257594D02*Y256844D01*
X136500Y255344D02*Y251594D01*
X139801Y254594D02*X142051D01*
X139801Y251594D02*X142801D01*
X139801Y257594D02*Y251594D01*
Y257594D02*X142801D01*
X147603D02*X148353Y256844D01*
X145353Y257594D02*X147603D01*
X144603Y256844D02*X145353Y257594D01*
X144603Y256844D02*Y255344D01*
X145353Y254594D01*
X147603D01*
X148353Y253844D01*
Y252344D01*
X147603Y251594D02*X148353Y252344D01*
X145353Y251594D02*X147603D01*
X144603Y252344D02*X145353Y251594D01*
X135000Y248343D02*X150154D01*
X98000Y256844D02*X98750Y257594D01*
X101000D01*
X101750Y256844D01*
Y255344D01*
X98000Y251594D02*X101750Y255344D01*
X98000Y251594D02*X101750D01*
X98000Y248343D02*X103551D01*
X45000Y252344D02*X45750Y251594D01*
X45000Y256844D02*Y252344D01*
Y256844D02*X45750Y257594D01*
X47250D01*
X48000Y256844D01*
Y252344D01*
X47250Y251594D02*X48000Y252344D01*
X45750Y251594D02*X47250D01*
X45000Y253094D02*X48000Y256094D01*
X49801Y251594D02*X50551D01*
X53103D02*X54603D01*
X53853Y257594D02*Y251594D01*
X52353Y256094D02*X53853Y257594D01*
X56404Y256844D02*X57154Y257594D01*
X59404D01*
X60154Y256844D01*
Y255344D01*
X56404Y251594D02*X60154Y255344D01*
X56404Y251594D02*X60154D01*
X61956Y252344D02*X62706Y251594D01*
X61956Y253844D02*Y252344D01*
Y253844D02*X62706Y254594D01*
X64206D01*
X64956Y253844D01*
Y252344D01*
X64206Y251594D02*X64956Y252344D01*
X62706Y251594D02*X64206D01*
X61956Y255344D02*X62706Y254594D01*
X61956Y256844D02*Y255344D01*
Y256844D02*X62706Y257594D01*
X64206D01*
X64956Y256844D01*
Y255344D01*
X64206Y254594D02*X64956Y255344D01*
X45000Y248343D02*X66757D01*
X40236Y102755D02*Y99555D01*
Y102755D02*X43009Y104355D01*
X40236Y102755D02*X37463Y104355D01*
X38636Y102755D02*G75*G03X41836Y102755I1600J0D01*G01*
G75*G03X38636Y102755I-1600J0D01*G01*
X50236D02*Y99555D01*
Y102755D02*X53009Y104355D01*
X50236Y102755D02*X47463Y104355D01*
X48636Y102755D02*G75*G03X51836Y102755I1600J0D01*G01*
G75*G03X48636Y102755I-1600J0D01*G01*
X310000Y29094D02*Y25894D01*
Y29094D02*X312773Y30694D01*
X310000Y29094D02*X307227Y30694D01*
X308400Y29094D02*G75*G03X311600Y29094I1600J0D01*G01*
G75*G03X308400Y29094I-1600J0D01*G01*
X310000Y39094D02*Y35894D01*
Y39094D02*X312773Y40694D01*
X310000Y39094D02*X307227Y40694D01*
X308400Y39094D02*G75*G03X311600Y39094I1600J0D01*G01*
G75*G03X308400Y39094I-1600J0D01*G01*
X330000Y29094D02*Y25894D01*
Y29094D02*X332773Y30694D01*
X330000Y29094D02*X327227Y30694D01*
X328400Y29094D02*G75*G03X331600Y29094I1600J0D01*G01*
G75*G03X328400Y29094I-1600J0D01*G01*
X330000Y39094D02*Y35894D01*
Y39094D02*X332773Y40694D01*
X330000Y39094D02*X327227Y40694D01*
X328400Y39094D02*G75*G03X331600Y39094I1600J0D01*G01*
G75*G03X328400Y39094I-1600J0D01*G01*
X290000Y29094D02*Y25894D01*
Y29094D02*X292773Y30694D01*
X290000Y29094D02*X287227Y30694D01*
X288400Y29094D02*G75*G03X291600Y29094I1600J0D01*G01*
G75*G03X288400Y29094I-1600J0D01*G01*
X290000Y39094D02*Y35894D01*
Y39094D02*X292773Y40694D01*
X290000Y39094D02*X287227Y40694D01*
X288400Y39094D02*G75*G03X291600Y39094I1600J0D01*G01*
G75*G03X288400Y39094I-1600J0D01*G01*
X270000Y29094D02*Y25894D01*
Y29094D02*X272773Y30694D01*
X270000Y29094D02*X267227Y30694D01*
X268400Y29094D02*G75*G03X271600Y29094I1600J0D01*G01*
G75*G03X268400Y29094I-1600J0D01*G01*
X270000Y39094D02*Y35894D01*
Y39094D02*X272773Y40694D01*
X270000Y39094D02*X267227Y40694D01*
X268400Y39094D02*G75*G03X271600Y39094I1600J0D01*G01*
G75*G03X268400Y39094I-1600J0D01*G01*
X15000Y270344D02*Y267144D01*
Y270344D02*X17773Y271944D01*
X15000Y270344D02*X12227Y271944D01*
X13400Y270344D02*G75*G03X16600Y270344I1600J0D01*G01*
G75*G03X13400Y270344I-1600J0D01*G01*
X135000Y272594D02*Y271844D01*
X136500Y270344D01*
X138000Y271844D01*
Y272594D02*Y271844D01*
X136500Y270344D02*Y266594D01*
X139801Y269594D02*X142051D01*
X139801Y266594D02*X142801D01*
X139801Y272594D02*Y266594D01*
Y272594D02*X142801D01*
X147603D02*X148353Y271844D01*
X145353Y272594D02*X147603D01*
X144603Y271844D02*X145353Y272594D01*
X144603Y271844D02*Y270344D01*
X145353Y269594D01*
X147603D01*
X148353Y268844D01*
Y267344D01*
X147603Y266594D02*X148353Y267344D01*
X145353Y266594D02*X147603D01*
X144603Y267344D02*X145353Y266594D01*
X135000Y263343D02*X150154D01*
X98750Y266594D02*X100250D01*
X99500Y272594D02*Y266594D01*
X98000Y271094D02*X99500Y272594D01*
X102051Y267344D02*X102801Y266594D01*
X102051Y271844D02*Y267344D01*
Y271844D02*X102801Y272594D01*
X104301D01*
X105051Y271844D01*
Y267344D01*
X104301Y266594D02*X105051Y267344D01*
X102801Y266594D02*X104301D01*
X102051Y268094D02*X105051Y271094D01*
X98000Y263343D02*X106853D01*
X45000Y267344D02*X45750Y266594D01*
X45000Y271844D02*Y267344D01*
Y271844D02*X45750Y272594D01*
X47250D01*
X48000Y271844D01*
Y267344D01*
X47250Y266594D02*X48000Y267344D01*
X45750Y266594D02*X47250D01*
X45000Y268094D02*X48000Y271094D01*
X49801Y266594D02*X50551D01*
X52353Y267344D02*X53103Y266594D01*
X52353Y271844D02*Y267344D01*
Y271844D02*X53103Y272594D01*
X54603D01*
X55353Y271844D01*
Y267344D01*
X54603Y266594D02*X55353Y267344D01*
X53103Y266594D02*X54603D01*
X52353Y268094D02*X55353Y271094D01*
X57154Y269594D02*X60154Y272594D01*
X57154Y269594D02*X60904D01*
X60154Y272594D02*Y266594D01*
X62706Y271844D02*X63456Y272594D01*
X64956D01*
X65706Y271844D01*
Y267344D01*
X64956Y266594D02*X65706Y267344D01*
X63456Y266594D02*X64956D01*
X62706Y267344D02*X63456Y266594D01*
Y269594D02*X65706D01*
X45000Y263343D02*X67507D01*
X100762Y21285D02*X103962D01*
X100762D02*Y18085D01*
X103962D01*
Y21285D02*Y18085D01*
X90762Y21285D02*X93962D01*
X90762D02*Y18085D01*
X93962D01*
Y21285D02*Y18085D01*
X133400Y220694D02*X136600D01*
X133400D02*Y217494D01*
X136600D01*
Y220694D02*Y217494D01*
X143400Y220694D02*X146600D01*
X143400D02*Y217494D01*
X146600D01*
Y220694D02*Y217494D01*
X133400Y210694D02*X136600D01*
X133400D02*Y207494D01*
X136600D01*
Y210694D02*Y207494D01*
X143400Y210694D02*X146600D01*
X143400D02*Y207494D01*
X146600D01*
Y210694D02*Y207494D01*
X133400Y200694D02*X136600D01*
X133400D02*Y197494D01*
X136600D01*
Y200694D02*Y197494D01*
X143400Y200694D02*X146600D01*
X143400D02*Y197494D01*
X146600D01*
Y200694D02*Y197494D01*
X278400Y155694D02*X281600D01*
X278400D02*Y152494D01*
X281600D01*
Y155694D02*Y152494D01*
X288400Y155694D02*X291600D01*
X288400D02*Y152494D01*
X291600D01*
Y155694D02*Y152494D01*
X278400Y145694D02*X281600D01*
X278400D02*Y142494D01*
X281600D01*
Y145694D02*Y142494D01*
X288400Y145694D02*X291600D01*
X288400D02*Y142494D01*
X291600D01*
Y145694D02*Y142494D01*
X278400Y135694D02*X281600D01*
X278400D02*Y132494D01*
X281600D01*
Y135694D02*Y132494D01*
X288400Y135694D02*X291600D01*
X288400D02*Y132494D01*
X291600D01*
Y135694D02*Y132494D01*
X278400Y125694D02*X281600D01*
X278400D02*Y122494D01*
X281600D01*
Y125694D02*Y122494D01*
X288400Y125694D02*X291600D01*
X288400D02*Y122494D01*
X291600D01*
Y125694D02*Y122494D01*
X278400Y115694D02*X281600D01*
X278400D02*Y112494D01*
X281600D01*
Y115694D02*Y112494D01*
X288400Y115694D02*X291600D01*
X288400D02*Y112494D01*
X291600D01*
Y115694D02*Y112494D01*
X13400Y286944D02*X16600D01*
X13400D02*Y283744D01*
X16600D01*
Y286944D02*Y283744D01*
X135000Y287594D02*Y286844D01*
X136500Y285344D01*
X138000Y286844D01*
Y287594D02*Y286844D01*
X136500Y285344D02*Y281594D01*
X139801Y284594D02*X142051D01*
X139801Y281594D02*X142801D01*
X139801Y287594D02*Y281594D01*
Y287594D02*X142801D01*
X147603D02*X148353Y286844D01*
X145353Y287594D02*X147603D01*
X144603Y286844D02*X145353Y287594D01*
X144603Y286844D02*Y285344D01*
X145353Y284594D01*
X147603D01*
X148353Y283844D01*
Y282344D01*
X147603Y281594D02*X148353Y282344D01*
X145353Y281594D02*X147603D01*
X144603Y282344D02*X145353Y281594D01*
X135000Y278343D02*X150154D01*
X98750Y281594D02*X100250D01*
X99500Y287594D02*Y281594D01*
X98000Y286094D02*X99500Y287594D01*
X102051Y282344D02*X102801Y281594D01*
X102051Y283844D02*Y282344D01*
Y283844D02*X102801Y284594D01*
X104301D01*
X105051Y283844D01*
Y282344D01*
X104301Y281594D02*X105051Y282344D01*
X102801Y281594D02*X104301D01*
X102051Y285344D02*X102801Y284594D01*
X102051Y286844D02*Y285344D01*
Y286844D02*X102801Y287594D01*
X104301D01*
X105051Y286844D01*
Y285344D01*
X104301Y284594D02*X105051Y285344D01*
X98000Y278343D02*X106853D01*
X45000Y282344D02*X45750Y281594D01*
X45000Y286844D02*Y282344D01*
Y286844D02*X45750Y287594D01*
X47250D01*
X48000Y286844D01*
Y282344D01*
X47250Y281594D02*X48000Y282344D01*
X45750Y281594D02*X47250D01*
X45000Y283094D02*X48000Y286094D01*
X49801Y281594D02*X50551D01*
X52353Y282344D02*X53103Y281594D01*
X52353Y286844D02*Y282344D01*
Y286844D02*X53103Y287594D01*
X54603D01*
X55353Y286844D01*
Y282344D01*
X54603Y281594D02*X55353Y282344D01*
X53103Y281594D02*X54603D01*
X52353Y283094D02*X55353Y286094D01*
X57154Y286844D02*X57904Y287594D01*
X59404D01*
X60154Y286844D01*
Y282344D01*
X59404Y281594D02*X60154Y282344D01*
X57904Y281594D02*X59404D01*
X57154Y282344D02*X57904Y281594D01*
Y284594D02*X60154D01*
X61956Y282344D02*X62706Y281594D01*
X61956Y283844D02*Y282344D01*
Y283844D02*X62706Y284594D01*
X64206D01*
X64956Y283844D01*
Y282344D01*
X64206Y281594D02*X64956Y282344D01*
X62706Y281594D02*X64206D01*
X61956Y285344D02*X62706Y284594D01*
X61956Y286844D02*Y285344D01*
Y286844D02*X62706Y287594D01*
X64206D01*
X64956Y286844D01*
Y285344D01*
X64206Y284594D02*X64956Y285344D01*
X45000Y278343D02*X66757D01*
X204200Y39094D02*G75*G03X205800Y39094I800J0D01*G01*
G75*G03X204200Y39094I-800J0D01*G01*
X319200Y14094D02*G75*G03X320800Y14094I800J0D01*G01*
G75*G03X319200Y14094I-800J0D01*G01*
X149200Y64094D02*G75*G03X150800Y64094I800J0D01*G01*
G75*G03X149200Y64094I-800J0D01*G01*
X159200D02*G75*G03X160800Y64094I800J0D01*G01*
G75*G03X159200Y64094I-800J0D01*G01*
Y99094D02*G75*G03X160800Y99094I800J0D01*G01*
G75*G03X159200Y99094I-800J0D01*G01*
X154200Y109094D02*G75*G03X155800Y109094I800J0D01*G01*
G75*G03X154200Y109094I-800J0D01*G01*
X304200Y134094D02*G75*G03X305800Y134094I800J0D01*G01*
G75*G03X304200Y134094I-800J0D01*G01*
X249200Y74094D02*G75*G03X250800Y74094I800J0D01*G01*
G75*G03X249200Y74094I-800J0D01*G01*
X259200D02*G75*G03X260800Y74094I800J0D01*G01*
G75*G03X259200Y74094I-800J0D01*G01*
X254200Y129094D02*G75*G03X255800Y129094I800J0D01*G01*
G75*G03X254200Y129094I-800J0D01*G01*
X264200Y144094D02*G75*G03X265800Y144094I800J0D01*G01*
G75*G03X264200Y144094I-800J0D01*G01*
X159200Y209094D02*G75*G03X160800Y209094I800J0D01*G01*
G75*G03X159200Y209094I-800J0D01*G01*
X89200Y79094D02*G75*G03X90800Y79094I800J0D01*G01*
G75*G03X89200Y79094I-800J0D01*G01*
X54200Y89094D02*G75*G03X55800Y89094I800J0D01*G01*
G75*G03X54200Y89094I-800J0D01*G01*
X89200Y184094D02*G75*G03X90800Y184094I800J0D01*G01*
G75*G03X89200Y184094I-800J0D01*G01*
X79200Y124094D02*G75*G03X80800Y124094I800J0D01*G01*
G75*G03X79200Y124094I-800J0D01*G01*
X19200D02*G75*G03X20800Y124094I800J0D01*G01*
G75*G03X19200Y124094I-800J0D01*G01*
X9200Y99094D02*G75*G03X10800Y99094I800J0D01*G01*
G75*G03X9200Y99094I-800J0D01*G01*
X85775Y97519D02*G75*G03X87375Y97519I800J0D01*G01*
G75*G03X85775Y97519I-800J0D01*G01*
X219200Y129094D02*G75*G03X220800Y129094I800J0D01*G01*
G75*G03X219200Y129094I-800J0D01*G01*
X199200Y139094D02*G75*G03X200800Y139094I800J0D01*G01*
G75*G03X199200Y139094I-800J0D01*G01*
X149200Y179094D02*G75*G03X150800Y179094I800J0D01*G01*
G75*G03X149200Y179094I-800J0D01*G01*
X199200Y119094D02*G75*G03X200800Y119094I800J0D01*G01*
G75*G03X199200Y119094I-800J0D01*G01*
X109200Y229094D02*G75*G03X110800Y229094I800J0D01*G01*
G75*G03X109200Y229094I-800J0D01*G01*
X101640Y191654D02*G75*G03X103240Y191654I800J0D01*G01*
G75*G03X101640Y191654I-800J0D01*G01*
X159200Y149094D02*G75*G03X160800Y149094I800J0D01*G01*
G75*G03X159200Y149094I-800J0D01*G01*
X149200Y169094D02*G75*G03X150800Y169094I800J0D01*G01*
G75*G03X149200Y169094I-800J0D01*G01*
X159200D02*G75*G03X160800Y169094I800J0D01*G01*
G75*G03X159200Y169094I-800J0D01*G01*
X189200Y149094D02*G75*G03X190800Y149094I800J0D01*G01*
G75*G03X189200Y149094I-800J0D01*G01*
X194200Y109094D02*G75*G03X195800Y109094I800J0D01*G01*
G75*G03X194200Y109094I-800J0D01*G01*
X159200Y44094D02*G75*G03X160800Y44094I800J0D01*G01*
G75*G03X159200Y44094I-800J0D01*G01*
X44200Y134094D02*G75*G03X45800Y134094I800J0D01*G01*
G75*G03X44200Y134094I-800J0D01*G01*
Y154094D02*G75*G03X45800Y154094I800J0D01*G01*
G75*G03X44200Y154094I-800J0D01*G01*
X124200Y159094D02*G75*G03X125800Y159094I800J0D01*G01*
G75*G03X124200Y159094I-800J0D01*G01*
X204200Y84094D02*G75*G03X205800Y84094I800J0D01*G01*
G75*G03X204200Y84094I-800J0D01*G01*
X184200Y79094D02*G75*G03X185800Y79094I800J0D01*G01*
G75*G03X184200Y79094I-800J0D01*G01*
Y69094D02*G75*G03X185800Y69094I800J0D01*G01*
G75*G03X184200Y69094I-800J0D01*G01*
Y169094D02*G75*G03X185800Y169094I800J0D01*G01*
G75*G03X184200Y169094I-800J0D01*G01*
Y179094D02*G75*G03X185800Y179094I800J0D01*G01*
G75*G03X184200Y179094I-800J0D01*G01*
X74200Y229094D02*G75*G03X75800Y229094I800J0D01*G01*
G75*G03X74200Y229094I-800J0D01*G01*
X77940Y19685D02*G75*G03X79540Y19685I800J0D01*G01*
G75*G03X77940Y19685I-800J0D01*G01*
X99200Y64094D02*G75*G03X100800Y64094I800J0D01*G01*
G75*G03X99200Y64094I-800J0D01*G01*
X74003Y98425D02*G75*G03X75603Y98425I800J0D01*G01*
G75*G03X74003Y98425I-800J0D01*G01*
X14200Y300344D02*G75*G03X15800Y300344I800J0D01*G01*
G75*G03X14200Y300344I-800J0D01*G01*
X135000Y302594D02*Y301844D01*
X136500Y300344D01*
X138000Y301844D01*
Y302594D02*Y301844D01*
X136500Y300344D02*Y296594D01*
X139801Y299594D02*X142051D01*
X139801Y296594D02*X142801D01*
X139801Y302594D02*Y296594D01*
Y302594D02*X142801D01*
X147603D02*X148353Y301844D01*
X145353Y302594D02*X147603D01*
X144603Y301844D02*X145353Y302594D01*
X144603Y301844D02*Y300344D01*
X145353Y299594D01*
X147603D01*
X148353Y298844D01*
Y297344D01*
X147603Y296594D02*X148353Y297344D01*
X145353Y296594D02*X147603D01*
X144603Y297344D02*X145353Y296594D01*
X135000Y293343D02*X150154D01*
X98000Y299594D02*X101000Y302594D01*
X98000Y299594D02*X101750D01*
X101000Y302594D02*Y296594D01*
X103551Y301844D02*X104301Y302594D01*
X105801D01*
X106551Y301844D01*
Y297344D01*
X105801Y296594D02*X106551Y297344D01*
X104301Y296594D02*X105801D01*
X103551Y297344D02*X104301Y296594D01*
Y299594D02*X106551D01*
X98000Y293343D02*X108353D01*
X45000Y297344D02*X45750Y296594D01*
X45000Y301844D02*Y297344D01*
Y301844D02*X45750Y302594D01*
X47250D01*
X48000Y301844D01*
Y297344D01*
X47250Y296594D02*X48000Y297344D01*
X45750Y296594D02*X47250D01*
X45000Y298094D02*X48000Y301094D01*
X49801Y296594D02*X50551D01*
X52353Y297344D02*X53103Y296594D01*
X52353Y301844D02*Y297344D01*
Y301844D02*X53103Y302594D01*
X54603D01*
X55353Y301844D01*
Y297344D01*
X54603Y296594D02*X55353Y297344D01*
X53103Y296594D02*X54603D01*
X52353Y298094D02*X55353Y301094D01*
X57154Y301844D02*X57904Y302594D01*
X59404D01*
X60154Y301844D01*
Y297344D01*
X59404Y296594D02*X60154Y297344D01*
X57904Y296594D02*X59404D01*
X57154Y297344D02*X57904Y296594D01*
Y299594D02*X60154D01*
X61956Y302594D02*X64956D01*
X61956D02*Y299594D01*
X62706Y300344D01*
X64206D01*
X64956Y299594D01*
Y297344D01*
X64206Y296594D02*X64956Y297344D01*
X62706Y296594D02*X64206D01*
X61956Y297344D02*X62706Y296594D01*
X45000Y293343D02*X66757D01*
X16241Y9632D02*X18641Y7232D01*
X16241D02*X18641Y9632D01*
X56241D02*X58641Y7232D01*
X56241D02*X58641Y9632D01*
X73603Y9711D02*X76003Y7311D01*
X73603D02*X76003Y9711D01*
X113603D02*X116003Y7311D01*
X113603D02*X116003Y9711D01*
X315099Y119940D02*X317499Y117540D01*
X315099D02*X317499Y119940D01*
X315099Y159940D02*X317499Y157540D01*
X315099D02*X317499Y159940D01*
X330099Y129940D02*X332499Y127540D01*
X330099D02*X332499Y129940D01*
X330099Y149940D02*X332499Y147540D01*
X330099D02*X332499Y149940D01*
X63917Y105648D02*X66317Y103248D01*
X63917D02*X66317Y105648D01*
X63917Y145648D02*X66317Y143248D01*
X63917D02*X66317Y145648D01*
X29036Y113955D02*X31436Y111555D01*
X29036D02*X31436Y113955D01*
X9036D02*X11436Y111555D01*
X9036D02*X11436Y113955D01*
X104036Y148955D02*X106436Y146555D01*
X104036D02*X106436Y148955D01*
X124036D02*X126436Y146555D01*
X124036D02*X126436Y148955D01*
X29036Y133955D02*X31436Y131555D01*
X29036D02*X31436Y133955D01*
X9036D02*X11436Y131555D01*
X9036D02*X11436Y133955D01*
X78052Y218089D02*X80452Y215689D01*
X78052D02*X80452Y218089D01*
X118052D02*X120452Y215689D01*
X118052D02*X120452Y218089D01*
X117146Y55845D02*X119546Y53445D01*
X117146D02*X119546Y55845D01*
X97146D02*X99546Y53445D01*
X97146D02*X99546Y55845D01*
X53918Y68443D02*X56318Y66043D01*
X53918D02*X56318Y68443D01*
X63918Y63443D02*X66318Y61043D01*
X63918D02*X66318Y63443D01*
X53918Y58443D02*X56318Y56043D01*
X53918D02*X56318Y58443D01*
X63918Y53443D02*X66318Y51043D01*
X63918D02*X66318Y53443D01*
X53918Y48443D02*X56318Y46043D01*
X53918D02*X56318Y48443D01*
X63918Y43443D02*X66318Y41043D01*
X63918D02*X66318Y43443D01*
X53918Y38443D02*X56318Y36043D01*
X53918D02*X56318Y38443D01*
X63918Y33443D02*X66318Y31043D01*
X63918D02*X66318Y33443D01*
X117146Y35097D02*X119546Y32697D01*
X117146D02*X119546Y35097D01*
X97146D02*X99546Y32697D01*
X97146D02*X99546Y35097D01*
X268800Y55294D02*X271200Y52894D01*
X268800D02*X271200Y55294D01*
X268800Y95294D02*X271200Y92894D01*
X268800D02*X271200Y95294D01*
X288800Y55294D02*X291200Y52894D01*
X288800D02*X291200Y55294D01*
X288800Y95294D02*X291200Y92894D01*
X288800D02*X291200Y95294D01*
X308800Y55294D02*X311200Y52894D01*
X308800D02*X311200Y55294D01*
X308800Y95294D02*X311200Y92894D01*
X308800D02*X311200Y95294D01*
X78052Y208089D02*X80452Y205689D01*
X78052D02*X80452Y208089D01*
X118052D02*X120452Y205689D01*
X118052D02*X120452Y208089D01*
X328800Y55294D02*X331200Y52894D01*
X328800D02*X331200Y55294D01*
X328800Y95294D02*X331200Y92894D01*
X328800D02*X331200Y95294D01*
X78052Y198089D02*X80452Y195689D01*
X78052D02*X80452Y198089D01*
X118052D02*X120452Y195689D01*
X118052D02*X120452Y198089D01*
X216674Y231357D02*X219074Y228957D01*
X216674D02*X219074Y231357D01*
X196674D02*X199074Y228957D01*
X196674D02*X199074Y231357D01*
X13800Y316544D02*X16200Y314144D01*
X13800D02*X16200Y316544D01*
X135000Y317594D02*Y316844D01*
X136500Y315344D01*
X138000Y316844D01*
Y317594D02*Y316844D01*
X136500Y315344D02*Y311594D01*
X139801Y314594D02*X142051D01*
X139801Y311594D02*X142801D01*
X139801Y317594D02*Y311594D01*
Y317594D02*X142801D01*
X147603D02*X148353Y316844D01*
X145353Y317594D02*X147603D01*
X144603Y316844D02*X145353Y317594D01*
X144603Y316844D02*Y315344D01*
X145353Y314594D01*
X147603D01*
X148353Y313844D01*
Y312344D01*
X147603Y311594D02*X148353Y312344D01*
X145353Y311594D02*X147603D01*
X144603Y312344D02*X145353Y311594D01*
X135000Y308343D02*X150154D01*
X98000Y314594D02*X101000Y317594D01*
X98000Y314594D02*X101750D01*
X101000Y317594D02*Y311594D01*
X103551Y314594D02*X106551Y317594D01*
X103551Y314594D02*X107301D01*
X106551Y317594D02*Y311594D01*
X98000Y308343D02*X109103D01*
X45000Y312344D02*X45750Y311594D01*
X45000Y316844D02*Y312344D01*
Y316844D02*X45750Y317594D01*
X47250D01*
X48000Y316844D01*
Y312344D01*
X47250Y311594D02*X48000Y312344D01*
X45750Y311594D02*X47250D01*
X45000Y313094D02*X48000Y316094D01*
X49801Y311594D02*X50551D01*
X52353Y312344D02*X53103Y311594D01*
X52353Y316844D02*Y312344D01*
Y316844D02*X53103Y317594D01*
X54603D01*
X55353Y316844D01*
Y312344D01*
X54603Y311594D02*X55353Y312344D01*
X53103Y311594D02*X54603D01*
X52353Y313094D02*X55353Y316094D01*
X57154Y316844D02*X57904Y317594D01*
X59404D01*
X60154Y316844D01*
Y312344D01*
X59404Y311594D02*X60154Y312344D01*
X57904Y311594D02*X59404D01*
X57154Y312344D02*X57904Y311594D01*
Y314594D02*X60154D01*
X61956Y312344D02*X62706Y311594D01*
X61956Y316844D02*Y312344D01*
Y316844D02*X62706Y317594D01*
X64206D01*
X64956Y316844D01*
Y312344D01*
X64206Y311594D02*X64956Y312344D01*
X62706Y311594D02*X64206D01*
X61956Y313094D02*X64956Y316094D01*
X45000Y308343D02*X66757D01*
X175000Y220694D02*Y217494D01*
X173400Y219094D02*X176600D01*
X175000Y210694D02*Y207494D01*
X173400Y209094D02*X176600D01*
X175000Y200694D02*Y197494D01*
X173400Y199094D02*X176600D01*
X175000Y190694D02*Y187494D01*
X173400Y189094D02*X176600D01*
X175000Y180694D02*Y177494D01*
X173400Y179094D02*X176600D01*
X175000Y170694D02*Y167494D01*
X173400Y169094D02*X176600D01*
X175000Y160694D02*Y157494D01*
X173400Y159094D02*X176600D01*
X175000Y150694D02*Y147494D01*
X173400Y149094D02*X176600D01*
X175000Y140694D02*Y137494D01*
X173400Y139094D02*X176600D01*
X175000Y130694D02*Y127494D01*
X173400Y129094D02*X176600D01*
X175000Y120694D02*Y117494D01*
X173400Y119094D02*X176600D01*
X175000Y110694D02*Y107494D01*
X173400Y109094D02*X176600D01*
X175000Y100694D02*Y97494D01*
X173400Y99094D02*X176600D01*
X175000Y90694D02*Y87494D01*
X173400Y89094D02*X176600D01*
X175000Y80694D02*Y77494D01*
X173400Y79094D02*X176600D01*
X175000Y70694D02*Y67494D01*
X173400Y69094D02*X176600D01*
X175000Y60694D02*Y57494D01*
X173400Y59094D02*X176600D01*
X175000Y50694D02*Y47494D01*
X173400Y49094D02*X176600D01*
X175000Y40694D02*Y37494D01*
X173400Y39094D02*X176600D01*
X175000Y30694D02*Y27494D01*
X173400Y29094D02*X176600D01*
X235000Y30694D02*Y27494D01*
X233400Y29094D02*X236600D01*
X235000Y40694D02*Y37494D01*
X233400Y39094D02*X236600D01*
X235000Y50694D02*Y47494D01*
X233400Y49094D02*X236600D01*
X235000Y60694D02*Y57494D01*
X233400Y59094D02*X236600D01*
X235000Y70694D02*Y67494D01*
X233400Y69094D02*X236600D01*
X235000Y80694D02*Y77494D01*
X233400Y79094D02*X236600D01*
X235000Y90694D02*Y87494D01*
X233400Y89094D02*X236600D01*
X235000Y100694D02*Y97494D01*
X233400Y99094D02*X236600D01*
X235000Y110694D02*Y107494D01*
X233400Y109094D02*X236600D01*
X235000Y120694D02*Y117494D01*
X233400Y119094D02*X236600D01*
X235000Y130694D02*Y127494D01*
X233400Y129094D02*X236600D01*
X235000Y140694D02*Y137494D01*
X233400Y139094D02*X236600D01*
X235000Y150694D02*Y147494D01*
X233400Y149094D02*X236600D01*
X235000Y160694D02*Y157494D01*
X233400Y159094D02*X236600D01*
X235000Y170694D02*Y167494D01*
X233400Y169094D02*X236600D01*
X235000Y180694D02*Y177494D01*
X233400Y179094D02*X236600D01*
X235000Y190694D02*Y187494D01*
X233400Y189094D02*X236600D01*
X235000Y200694D02*Y197494D01*
X233400Y199094D02*X236600D01*
X235000Y210694D02*Y207494D01*
X233400Y209094D02*X236600D01*
X235000Y220694D02*Y217494D01*
X233400Y219094D02*X236600D01*
X129842Y79119D02*Y75919D01*
X128242Y77519D02*X131442D01*
X129842Y89119D02*Y85919D01*
X128242Y87519D02*X131442D01*
X129842Y99119D02*Y95919D01*
X128242Y97519D02*X131442D01*
X129842Y109119D02*Y105919D01*
X128242Y107519D02*X131442D01*
X129842Y119119D02*Y115919D01*
X128242Y117519D02*X131442D01*
X129842Y129119D02*Y125919D01*
X128242Y127519D02*X131442D01*
X129842Y139119D02*Y135919D01*
X128242Y137519D02*X131442D01*
X99842Y139119D02*Y135919D01*
X98242Y137519D02*X101442D01*
X99842Y129119D02*Y125919D01*
X98242Y127519D02*X101442D01*
X99842Y119119D02*Y115919D01*
X98242Y117519D02*X101442D01*
X99842Y109119D02*Y105919D01*
X98242Y107519D02*X101442D01*
X99842Y99119D02*Y95919D01*
X98242Y97519D02*X101442D01*
X99842Y89119D02*Y85919D01*
X98242Y87519D02*X101442D01*
X99842Y79119D02*Y75919D01*
X98242Y77519D02*X101442D01*
X137636Y36245D02*Y33045D01*
X136036Y34645D02*X139236D01*
X137636Y56245D02*Y53045D01*
X136036Y54645D02*X139236D01*
X15000Y331944D02*Y328744D01*
X13400Y330344D02*X16600D01*
X135000Y332594D02*Y331844D01*
X136500Y330344D01*
X138000Y331844D01*
Y332594D02*Y331844D01*
X136500Y330344D02*Y326594D01*
X139801Y329594D02*X142051D01*
X139801Y326594D02*X142801D01*
X139801Y332594D02*Y326594D01*
Y332594D02*X142801D01*
X147603D02*X148353Y331844D01*
X145353Y332594D02*X147603D01*
X144603Y331844D02*X145353Y332594D01*
X144603Y331844D02*Y330344D01*
X145353Y329594D01*
X147603D01*
X148353Y328844D01*
Y327344D01*
X147603Y326594D02*X148353Y327344D01*
X145353Y326594D02*X147603D01*
X144603Y327344D02*X145353Y326594D01*
X135000Y323343D02*X150154D01*
X98000Y332594D02*X101000D01*
X98000D02*Y329594D01*
X98750Y330344D01*
X100250D01*
X101000Y329594D01*
Y327344D01*
X100250Y326594D02*X101000Y327344D01*
X98750Y326594D02*X100250D01*
X98000Y327344D02*X98750Y326594D01*
X105051Y332594D02*X105801Y331844D01*
X103551Y332594D02*X105051D01*
X102801Y331844D02*X103551Y332594D01*
X102801Y331844D02*Y327344D01*
X103551Y326594D01*
X105051Y329594D02*X105801Y328844D01*
X102801Y329594D02*X105051D01*
X103551Y326594D02*X105051D01*
X105801Y327344D01*
Y328844D02*Y327344D01*
X98000Y323343D02*X107603D01*
X45000Y327344D02*X45750Y326594D01*
X45000Y331844D02*Y327344D01*
Y331844D02*X45750Y332594D01*
X47250D01*
X48000Y331844D01*
Y327344D01*
X47250Y326594D02*X48000Y327344D01*
X45750Y326594D02*X47250D01*
X45000Y328094D02*X48000Y331094D01*
X49801Y326594D02*X50551D01*
X52353Y327344D02*X53103Y326594D01*
X52353Y331844D02*Y327344D01*
Y331844D02*X53103Y332594D01*
X54603D01*
X55353Y331844D01*
Y327344D01*
X54603Y326594D02*X55353Y327344D01*
X53103Y326594D02*X54603D01*
X52353Y328094D02*X55353Y331094D01*
X57154Y331844D02*X57904Y332594D01*
X60154D01*
X60904Y331844D01*
Y330344D01*
X57154Y326594D02*X60904Y330344D01*
X57154Y326594D02*X60904D01*
X62706Y327344D02*X63456Y326594D01*
X62706Y328844D02*Y327344D01*
Y328844D02*X63456Y329594D01*
X64956D01*
X65706Y328844D01*
Y327344D01*
X64956Y326594D02*X65706Y327344D01*
X63456Y326594D02*X64956D01*
X62706Y330344D02*X63456Y329594D01*
X62706Y331844D02*Y330344D01*
Y331844D02*X63456Y332594D01*
X64956D01*
X65706Y331844D01*
Y330344D01*
X64956Y329594D02*X65706Y330344D01*
X45000Y323343D02*X67507D01*
X253780Y228346D02*Y226746D01*
Y228346D02*X255166Y229146D01*
X253780Y228346D02*X252394Y229146D01*
X263780Y228346D02*Y226746D01*
Y228346D02*X265166Y229146D01*
X263780Y228346D02*X262394Y229146D01*
X273780Y228346D02*Y226746D01*
Y228346D02*X275166Y229146D01*
X273780Y228346D02*X272394Y229146D01*
X283780Y228346D02*Y226746D01*
Y228346D02*X285166Y229146D01*
X283780Y228346D02*X282394Y229146D01*
X293780Y228346D02*Y226746D01*
Y228346D02*X295166Y229146D01*
X293780Y228346D02*X292394Y229146D01*
X303780Y228346D02*Y226746D01*
Y228346D02*X305166Y229146D01*
X303780Y228346D02*X302394Y229146D01*
X313780Y228346D02*Y226746D01*
Y228346D02*X315166Y229146D01*
X313780Y228346D02*X312394Y229146D01*
X323780Y228346D02*Y226746D01*
Y228346D02*X325166Y229146D01*
X323780Y228346D02*X322394Y229146D01*
X108110Y169291D02*Y167691D01*
Y169291D02*X109496Y170091D01*
X108110Y169291D02*X106724Y170091D01*
X118110Y169291D02*Y167691D01*
Y169291D02*X119496Y170091D01*
X118110Y169291D02*X116724Y170091D01*
X128110Y169291D02*Y167691D01*
Y169291D02*X129496Y170091D01*
X128110Y169291D02*X126724Y170091D01*
X138110Y169291D02*Y167691D01*
Y169291D02*X139496Y170091D01*
X138110Y169291D02*X136724Y170091D01*
X15000Y345344D02*Y343744D01*
Y345344D02*X16386Y346144D01*
X15000Y345344D02*X13614Y346144D01*
X135000Y347594D02*Y346844D01*
X136500Y345344D01*
X138000Y346844D01*
Y347594D02*Y346844D01*
X136500Y345344D02*Y341594D01*
X139801Y344594D02*X142051D01*
X139801Y341594D02*X142801D01*
X139801Y347594D02*Y341594D01*
Y347594D02*X142801D01*
X147603D02*X148353Y346844D01*
X145353Y347594D02*X147603D01*
X144603Y346844D02*X145353Y347594D01*
X144603Y346844D02*Y345344D01*
X145353Y344594D01*
X147603D01*
X148353Y343844D01*
Y342344D01*
X147603Y341594D02*X148353Y342344D01*
X145353Y341594D02*X147603D01*
X144603Y342344D02*X145353Y341594D01*
X135000Y338343D02*X150154D01*
X98750Y341594D02*X100250D01*
X99500Y347594D02*Y341594D01*
X98000Y346094D02*X99500Y347594D01*
X102051Y346844D02*X102801Y347594D01*
X105051D01*
X105801Y346844D01*
Y345344D01*
X102051Y341594D02*X105801Y345344D01*
X102051Y341594D02*X105801D01*
X98000Y338343D02*X107603D01*
X45000Y342344D02*X45750Y341594D01*
X45000Y346844D02*Y342344D01*
Y346844D02*X45750Y347594D01*
X47250D01*
X48000Y346844D01*
Y342344D01*
X47250Y341594D02*X48000Y342344D01*
X45750Y341594D02*X47250D01*
X45000Y343094D02*X48000Y346094D01*
X49801Y341594D02*X50551D01*
X52353Y342344D02*X53103Y341594D01*
X52353Y346844D02*Y342344D01*
Y346844D02*X53103Y347594D01*
X54603D01*
X55353Y346844D01*
Y342344D01*
X54603Y341594D02*X55353Y342344D01*
X53103Y341594D02*X54603D01*
X52353Y343094D02*X55353Y346094D01*
X57904Y341594D02*X59404D01*
X58654Y347594D02*Y341594D01*
X57154Y346094D02*X58654Y347594D01*
X61206D02*X64206D01*
X61206D02*Y344594D01*
X61956Y345344D01*
X63456D01*
X64206Y344594D01*
Y342344D01*
X63456Y341594D02*X64206Y342344D01*
X61956Y341594D02*X63456D01*
X61206Y342344D02*X61956Y341594D01*
X45000Y338343D02*X66007D01*
X3000Y362594D02*X3750Y361844D01*
X750Y362594D02*X3000D01*
X0Y361844D02*X750Y362594D01*
X0Y361844D02*Y360344D01*
X750Y359594D01*
X3000D01*
X3750Y358844D01*
Y357344D01*
X3000Y356594D02*X3750Y357344D01*
X750Y356594D02*X3000D01*
X0Y357344D02*X750Y356594D01*
X5551Y359594D02*Y357344D01*
X6301Y356594D01*
X8551Y359594D02*Y355094D01*
X7801Y354344D02*X8551Y355094D01*
X6301Y354344D02*X7801D01*
X5551Y355094D02*X6301Y354344D01*
Y356594D02*X7801D01*
X8551Y357344D01*
X11103Y358844D02*Y356594D01*
Y358844D02*X11853Y359594D01*
X12603D01*
X13353Y358844D01*
Y356594D01*
Y358844D02*X14103Y359594D01*
X14853D01*
X15603Y358844D01*
Y356594D01*
X10353Y359594D02*X11103Y358844D01*
X17404Y362594D02*Y356594D01*
Y357344D02*X18154Y356594D01*
X19654D01*
X20404Y357344D01*
Y358844D02*Y357344D01*
X19654Y359594D02*X20404Y358844D01*
X18154Y359594D02*X19654D01*
X17404Y358844D02*X18154Y359594D01*
X22206Y358844D02*Y357344D01*
Y358844D02*X22956Y359594D01*
X24456D01*
X25206Y358844D01*
Y357344D01*
X24456Y356594D02*X25206Y357344D01*
X22956Y356594D02*X24456D01*
X22206Y357344D02*X22956Y356594D01*
X27007Y362594D02*Y357344D01*
X27757Y356594D01*
X41750Y362594D02*Y356594D01*
X44000Y362594D02*X44750Y361844D01*
Y357344D01*
X44000Y356594D02*X44750Y357344D01*
X41000Y356594D02*X44000D01*
X41000Y362594D02*X44000D01*
X46551Y361094D02*Y360344D01*
Y358844D02*Y356594D01*
X50303Y359594D02*X51053Y358844D01*
X48803Y359594D02*X50303D01*
X48053Y358844D02*X48803Y359594D01*
X48053Y358844D02*Y357344D01*
X48803Y356594D01*
X51053Y359594D02*Y357344D01*
X51803Y356594D01*
X48803D02*X50303D01*
X51053Y357344D01*
X54354Y358844D02*Y356594D01*
Y358844D02*X55104Y359594D01*
X55854D01*
X56604Y358844D01*
Y356594D01*
Y358844D02*X57354Y359594D01*
X58104D01*
X58854Y358844D01*
Y356594D01*
X53604Y359594D02*X54354Y358844D01*
X60656Y356594D02*X61406D01*
X65907Y357344D02*X66657Y356594D01*
X65907Y361844D02*X66657Y362594D01*
X65907Y361844D02*Y357344D01*
X68459Y362594D02*X69959D01*
X69209D02*Y356594D01*
X68459D02*X69959D01*
X72510Y358844D02*Y356594D01*
Y358844D02*X73260Y359594D01*
X74010D01*
X74760Y358844D01*
Y356594D01*
X71760Y359594D02*X72510Y358844D01*
X77312Y359594D02*X79562D01*
X76562Y358844D02*X77312Y359594D01*
X76562Y358844D02*Y357344D01*
X77312Y356594D01*
X79562D01*
X81363Y362594D02*Y356594D01*
Y358844D02*X82113Y359594D01*
X83613D01*
X84363Y358844D01*
Y356594D01*
X86165Y362594D02*X86915Y361844D01*
Y357344D01*
X86165Y356594D02*X86915Y357344D01*
X95750Y356594D02*X98000D01*
X95000Y357344D02*X95750Y356594D01*
X95000Y361844D02*Y357344D01*
Y361844D02*X95750Y362594D01*
X98000D01*
X99801Y358844D02*Y357344D01*
Y358844D02*X100551Y359594D01*
X102051D01*
X102801Y358844D01*
Y357344D01*
X102051Y356594D02*X102801Y357344D01*
X100551Y356594D02*X102051D01*
X99801Y357344D02*X100551Y356594D01*
X104603Y359594D02*Y357344D01*
X105353Y356594D01*
X106853D01*
X107603Y357344D01*
Y359594D02*Y357344D01*
X110154Y358844D02*Y356594D01*
Y358844D02*X110904Y359594D01*
X111654D01*
X112404Y358844D01*
Y356594D01*
X109404Y359594D02*X110154Y358844D01*
X114956Y362594D02*Y357344D01*
X115706Y356594D01*
X114206Y360344D02*X115706D01*
X130750Y362594D02*Y356594D01*
X130000Y362594D02*X133000D01*
X133750Y361844D01*
Y360344D01*
X133000Y359594D02*X133750Y360344D01*
X130750Y359594D02*X133000D01*
X135551Y362594D02*Y357344D01*
X136301Y356594D01*
X140053Y359594D02*X140803Y358844D01*
X138553Y359594D02*X140053D01*
X137803Y358844D02*X138553Y359594D01*
X137803Y358844D02*Y357344D01*
X138553Y356594D01*
X140803Y359594D02*Y357344D01*
X141553Y356594D01*
X138553D02*X140053D01*
X140803Y357344D01*
X144104Y362594D02*Y357344D01*
X144854Y356594D01*
X143354Y360344D02*X144854D01*
X147106Y356594D02*X149356D01*
X146356Y357344D02*X147106Y356594D01*
X146356Y358844D02*Y357344D01*
Y358844D02*X147106Y359594D01*
X148606D01*
X149356Y358844D01*
X146356Y358094D02*X149356D01*
Y358844D02*Y358094D01*
X154157Y362594D02*Y356594D01*
X153407D02*X154157Y357344D01*
X151907Y356594D02*X153407D01*
X151157Y357344D02*X151907Y356594D01*
X151157Y358844D02*Y357344D01*
Y358844D02*X151907Y359594D01*
X153407D01*
X154157Y358844D01*
X157459Y359594D02*Y358844D01*
Y357344D02*Y356594D01*
X155959Y361844D02*Y361094D01*
Y361844D02*X156709Y362594D01*
X158209D01*
X158959Y361844D01*
Y361094D01*
X157459Y359594D02*X158959Y361094D01*
X0Y377594D02*X3000D01*
X1500D02*Y371594D01*
X4801Y377594D02*Y371594D01*
Y373844D02*X5551Y374594D01*
X7051D01*
X7801Y373844D01*
Y371594D01*
X10353D02*X12603D01*
X9603Y372344D02*X10353Y371594D01*
X9603Y373844D02*Y372344D01*
Y373844D02*X10353Y374594D01*
X11853D01*
X12603Y373844D01*
X9603Y373094D02*X12603D01*
Y373844D02*Y373094D01*
X15154Y373844D02*Y371594D01*
Y373844D02*X15904Y374594D01*
X17404D01*
X14404D02*X15154Y373844D01*
X19956Y371594D02*X22206D01*
X19206Y372344D02*X19956Y371594D01*
X19206Y373844D02*Y372344D01*
Y373844D02*X19956Y374594D01*
X21456D01*
X22206Y373844D01*
X19206Y373094D02*X22206D01*
Y373844D02*Y373094D01*
X28957Y374594D02*X29707Y373844D01*
X27457Y374594D02*X28957D01*
X26707Y373844D02*X27457Y374594D01*
X26707Y373844D02*Y372344D01*
X27457Y371594D01*
X29707Y374594D02*Y372344D01*
X30457Y371594D01*
X27457D02*X28957D01*
X29707Y372344D01*
X33009Y373844D02*Y371594D01*
Y373844D02*X33759Y374594D01*
X35259D01*
X32259D02*X33009Y373844D01*
X37810Y371594D02*X40060D01*
X37060Y372344D02*X37810Y371594D01*
X37060Y373844D02*Y372344D01*
Y373844D02*X37810Y374594D01*
X39310D01*
X40060Y373844D01*
X37060Y373094D02*X40060D01*
Y373844D02*Y373094D01*
X44562Y371594D02*X48312Y375344D01*
Y377594D02*Y375344D01*
X44562Y377594D02*X48312D01*
X55813D02*Y371594D01*
X55063D02*X55813Y372344D01*
X53563Y371594D02*X55063D01*
X52813Y372344D02*X53563Y371594D01*
X52813Y373844D02*Y372344D01*
Y373844D02*X53563Y374594D01*
X55063D01*
X55813Y373844D01*
X57615Y376094D02*Y375344D01*
Y373844D02*Y371594D01*
X59866Y376844D02*Y371594D01*
Y376844D02*X60616Y377594D01*
X61366D01*
X59116Y374594D02*X60616D01*
X63618Y376844D02*Y371594D01*
Y376844D02*X64368Y377594D01*
X65118D01*
X62868Y374594D02*X64368D01*
X67369Y371594D02*X69619D01*
X66619Y372344D02*X67369Y371594D01*
X66619Y373844D02*Y372344D01*
Y373844D02*X67369Y374594D01*
X68869D01*
X69619Y373844D01*
X66619Y373094D02*X69619D01*
Y373844D02*Y373094D01*
X72171Y373844D02*Y371594D01*
Y373844D02*X72921Y374594D01*
X74421D01*
X71421D02*X72171Y373844D01*
X76972Y371594D02*X79222D01*
X76222Y372344D02*X76972Y371594D01*
X76222Y373844D02*Y372344D01*
Y373844D02*X76972Y374594D01*
X78472D01*
X79222Y373844D01*
X76222Y373094D02*X79222D01*
Y373844D02*Y373094D01*
X81774Y373844D02*Y371594D01*
Y373844D02*X82524Y374594D01*
X83274D01*
X84024Y373844D01*
Y371594D01*
X81024Y374594D02*X81774Y373844D01*
X86575Y377594D02*Y372344D01*
X87325Y371594D01*
X85825Y375344D02*X87325D01*
X94527Y377594D02*Y371594D01*
X93777D02*X94527Y372344D01*
X92277Y371594D02*X93777D01*
X91527Y372344D02*X92277Y371594D01*
X91527Y373844D02*Y372344D01*
Y373844D02*X92277Y374594D01*
X93777D01*
X94527Y373844D01*
X97078D02*Y371594D01*
Y373844D02*X97828Y374594D01*
X99328D01*
X96328D02*X97078Y373844D01*
X101130Y376094D02*Y375344D01*
Y373844D02*Y371594D01*
X102631Y377594D02*Y372344D01*
X103381Y371594D01*
X104883Y377594D02*Y372344D01*
X105633Y371594D01*
X110584D02*X112834D01*
X113584Y372344D01*
X112834Y373094D02*X113584Y372344D01*
X110584Y373094D02*X112834D01*
X109834Y373844D02*X110584Y373094D01*
X109834Y373844D02*X110584Y374594D01*
X112834D01*
X113584Y373844D01*
X109834Y372344D02*X110584Y371594D01*
X115386Y376094D02*Y375344D01*
Y373844D02*Y371594D01*
X116887Y374594D02*X119887D01*
X116887Y371594D02*X119887Y374594D01*
X116887Y371594D02*X119887D01*
X122439D02*X124689D01*
X121689Y372344D02*X122439Y371594D01*
X121689Y373844D02*Y372344D01*
Y373844D02*X122439Y374594D01*
X123939D01*
X124689Y373844D01*
X121689Y373094D02*X124689D01*
Y373844D02*Y373094D01*
X127240Y371594D02*X129490D01*
X130240Y372344D01*
X129490Y373094D02*X130240Y372344D01*
X127240Y373094D02*X129490D01*
X126490Y373844D02*X127240Y373094D01*
X126490Y373844D02*X127240Y374594D01*
X129490D01*
X130240Y373844D01*
X126490Y372344D02*X127240Y371594D01*
X134742Y374594D02*Y372344D01*
X135492Y371594D01*
X136992D01*
X137742Y372344D01*
Y374594D02*Y372344D01*
X140293Y371594D02*X142543D01*
X143293Y372344D01*
X142543Y373094D02*X143293Y372344D01*
X140293Y373094D02*X142543D01*
X139543Y373844D02*X140293Y373094D01*
X139543Y373844D02*X140293Y374594D01*
X142543D01*
X143293Y373844D01*
X139543Y372344D02*X140293Y371594D01*
X145845D02*X148095D01*
X145095Y372344D02*X145845Y371594D01*
X145095Y373844D02*Y372344D01*
Y373844D02*X145845Y374594D01*
X147345D01*
X148095Y373844D01*
X145095Y373094D02*X148095D01*
Y373844D02*Y373094D01*
X152896Y377594D02*Y371594D01*
X152146D02*X152896Y372344D01*
X150646Y371594D02*X152146D01*
X149896Y372344D02*X150646Y371594D01*
X149896Y373844D02*Y372344D01*
Y373844D02*X150646Y374594D01*
X152146D01*
X152896Y373844D01*
X157398Y376094D02*Y375344D01*
Y373844D02*Y371594D01*
X159649Y373844D02*Y371594D01*
Y373844D02*X160399Y374594D01*
X161149D01*
X161899Y373844D01*
Y371594D01*
X158899Y374594D02*X159649Y373844D01*
X167151Y377594D02*Y372344D01*
X167901Y371594D01*
X166401Y375344D02*X167901D01*
X169402Y377594D02*Y371594D01*
Y373844D02*X170152Y374594D01*
X171652D01*
X172402Y373844D01*
Y371594D01*
X174204Y376094D02*Y375344D01*
Y373844D02*Y371594D01*
X176455D02*X178705D01*
X179455Y372344D01*
X178705Y373094D02*X179455Y372344D01*
X176455Y373094D02*X178705D01*
X175705Y373844D02*X176455Y373094D01*
X175705Y373844D02*X176455Y374594D01*
X178705D01*
X179455Y373844D01*
X175705Y372344D02*X176455Y371594D01*
X183957Y377594D02*Y372344D01*
X184707Y371594D01*
X188458Y374594D02*X189208Y373844D01*
X186958Y374594D02*X188458D01*
X186208Y373844D02*X186958Y374594D01*
X186208Y373844D02*Y372344D01*
X186958Y371594D01*
X189208Y374594D02*Y372344D01*
X189958Y371594D01*
X186958D02*X188458D01*
X189208Y372344D01*
X191760Y374594D02*Y372344D01*
X192510Y371594D01*
X194760Y374594D02*Y370094D01*
X194010Y369344D02*X194760Y370094D01*
X192510Y369344D02*X194010D01*
X191760Y370094D02*X192510Y369344D01*
Y371594D02*X194010D01*
X194760Y372344D01*
X196561Y373844D02*Y372344D01*
Y373844D02*X197311Y374594D01*
X198811D01*
X199561Y373844D01*
Y372344D01*
X198811Y371594D02*X199561Y372344D01*
X197311Y371594D02*X198811D01*
X196561Y372344D02*X197311Y371594D01*
X201363Y374594D02*Y372344D01*
X202113Y371594D01*
X203613D01*
X204363Y372344D01*
Y374594D02*Y372344D01*
X206914Y377594D02*Y372344D01*
X207664Y371594D01*
X206164Y375344D02*X207664D01*
X209166Y370094D02*X210666Y371594D01*
X215917D02*X217417D01*
X216667Y377594D02*Y371594D01*
X215167Y376094D02*X216667Y377594D01*
X219219Y372344D02*X219969Y371594D01*
X219219Y373844D02*Y372344D01*
Y373844D02*X219969Y374594D01*
X221469D01*
X222219Y373844D01*
Y372344D01*
X221469Y371594D02*X222219Y372344D01*
X219969Y371594D02*X221469D01*
X219219Y375344D02*X219969Y374594D01*
X219219Y376844D02*Y375344D01*
Y376844D02*X219969Y377594D01*
X221469D01*
X222219Y376844D01*
Y375344D01*
X221469Y374594D02*X222219Y375344D01*
X224020Y377594D02*X227020D01*
X224020D02*Y374594D01*
X224770Y375344D01*
X226270D01*
X227020Y374594D01*
Y372344D01*
X226270Y371594D02*X227020Y372344D01*
X224770Y371594D02*X226270D01*
X224020Y372344D02*X224770Y371594D01*
X231522Y377594D02*Y371594D01*
Y373844D02*X232272Y374594D01*
X233772D01*
X234522Y373844D01*
Y371594D01*
X236323Y373844D02*Y372344D01*
Y373844D02*X237073Y374594D01*
X238573D01*
X239323Y373844D01*
Y372344D01*
X238573Y371594D02*X239323Y372344D01*
X237073Y371594D02*X238573D01*
X236323Y372344D02*X237073Y371594D01*
X241125Y377594D02*Y372344D01*
X241875Y371594D01*
X244126D02*X246376D01*
X243376Y372344D02*X244126Y371594D01*
X243376Y373844D02*Y372344D01*
Y373844D02*X244126Y374594D01*
X245626D01*
X246376Y373844D01*
X243376Y373094D02*X246376D01*
Y373844D02*Y373094D01*
X248928Y371594D02*X251178D01*
X251928Y372344D01*
X251178Y373094D02*X251928Y372344D01*
X248928Y373094D02*X251178D01*
X248178Y373844D02*X248928Y373094D01*
X248178Y373844D02*X248928Y374594D01*
X251178D01*
X251928Y373844D01*
X248178Y372344D02*X248928Y371594D01*
X257179Y377594D02*Y372344D01*
X257929Y371594D01*
X256429Y375344D02*X257929D01*
X259431Y373844D02*Y372344D01*
Y373844D02*X260181Y374594D01*
X261681D01*
X262431Y373844D01*
Y372344D01*
X261681Y371594D02*X262431Y372344D01*
X260181Y371594D02*X261681D01*
X259431Y372344D02*X260181Y371594D01*
X264982Y377594D02*Y372344D01*
X265732Y371594D01*
X264232Y375344D02*X265732D01*
X269484Y374594D02*X270234Y373844D01*
X267984Y374594D02*X269484D01*
X267234Y373844D02*X267984Y374594D01*
X267234Y373844D02*Y372344D01*
X267984Y371594D01*
X270234Y374594D02*Y372344D01*
X270984Y371594D01*
X267984D02*X269484D01*
X270234Y372344D01*
X272785Y377594D02*Y372344D01*
X273535Y371594D01*
G54D40*X0Y244094D02*X346457D01*
X0D02*Y0D01*
X346457Y244094D02*Y0D01*
X0D02*X346457D01*
G54D45*X200000Y257594D02*Y251594D01*
Y257594D02*X202250Y255344D01*
X204500Y257594D01*
Y251594D01*
X208551Y254594D02*X209301Y253844D01*
X207051Y254594D02*X208551D01*
X206301Y253844D02*X207051Y254594D01*
X206301Y253844D02*Y252344D01*
X207051Y251594D01*
X209301Y254594D02*Y252344D01*
X210051Y251594D01*
X207051D02*X208551D01*
X209301Y252344D01*
X211853Y254594D02*X214853Y251594D01*
X211853D02*X214853Y254594D01*
X216654Y256094D02*Y255344D01*
Y253844D02*Y251594D01*
X218906Y253844D02*Y251594D01*
Y253844D02*X219656Y254594D01*
X220406D01*
X221156Y253844D01*
Y251594D01*
Y253844D02*X221906Y254594D01*
X222656D01*
X223406Y253844D01*
Y251594D01*
X218156Y254594D02*X218906Y253844D01*
X225207Y254594D02*Y252344D01*
X225957Y251594D01*
X227457D01*
X228207Y252344D01*
Y254594D02*Y252344D01*
X230759Y253844D02*Y251594D01*
Y253844D02*X231509Y254594D01*
X232259D01*
X233009Y253844D01*
Y251594D01*
Y253844D02*X233759Y254594D01*
X234509D01*
X235259Y253844D01*
Y251594D01*
X230009Y254594D02*X230759Y253844D01*
X240510Y257594D02*Y251594D01*
X242760Y257594D02*X243510Y256844D01*
Y252344D01*
X242760Y251594D02*X243510Y252344D01*
X239760Y251594D02*X242760D01*
X239760Y257594D02*X242760D01*
X245312Y256094D02*Y255344D01*
Y253844D02*Y251594D01*
X247563Y253844D02*Y251594D01*
Y253844D02*X248313Y254594D01*
X249063D01*
X249813Y253844D01*
Y251594D01*
Y253844D02*X250563Y254594D01*
X251313D01*
X252063Y253844D01*
Y251594D01*
X246813Y254594D02*X247563Y253844D01*
X254615Y251594D02*X256865D01*
X253865Y252344D02*X254615Y251594D01*
X253865Y253844D02*Y252344D01*
Y253844D02*X254615Y254594D01*
X256115D01*
X256865Y253844D01*
X253865Y253094D02*X256865D01*
Y253844D02*Y253094D01*
X259416Y253844D02*Y251594D01*
Y253844D02*X260166Y254594D01*
X260916D01*
X261666Y253844D01*
Y251594D01*
X258666Y254594D02*X259416Y253844D01*
X264218Y251594D02*X266468D01*
X267218Y252344D01*
X266468Y253094D02*X267218Y252344D01*
X264218Y253094D02*X266468D01*
X263468Y253844D02*X264218Y253094D01*
X263468Y253844D02*X264218Y254594D01*
X266468D01*
X267218Y253844D01*
X263468Y252344D02*X264218Y251594D01*
X269019Y256094D02*Y255344D01*
Y253844D02*Y251594D01*
X270521Y253844D02*Y252344D01*
Y253844D02*X271271Y254594D01*
X272771D01*
X273521Y253844D01*
Y252344D01*
X272771Y251594D02*X273521Y252344D01*
X271271Y251594D02*X272771D01*
X270521Y252344D02*X271271Y251594D01*
X276072Y253844D02*Y251594D01*
Y253844D02*X276822Y254594D01*
X277572D01*
X278322Y253844D01*
Y251594D01*
X275322Y254594D02*X276072Y253844D01*
X280874Y251594D02*X283124D01*
X283874Y252344D01*
X283124Y253094D02*X283874Y252344D01*
X280874Y253094D02*X283124D01*
X280124Y253844D02*X280874Y253094D01*
X280124Y253844D02*X280874Y254594D01*
X283124D01*
X283874Y253844D01*
X280124Y252344D02*X280874Y251594D01*
X285675Y255344D02*X286425D01*
X285675Y253844D02*X286425D01*
X290927Y256844D02*X291677Y257594D01*
X293177D01*
X293927Y256844D01*
Y252344D01*
X293177Y251594D02*X293927Y252344D01*
X291677Y251594D02*X293177D01*
X290927Y252344D02*X291677Y251594D01*
Y254594D02*X293927D01*
X295728D02*X298728Y257594D01*
X295728Y254594D02*X299478D01*
X298728Y257594D02*Y251594D01*
X303530Y257594D02*X304280Y256844D01*
X302030Y257594D02*X303530D01*
X301280Y256844D02*X302030Y257594D01*
X301280Y256844D02*Y252344D01*
X302030Y251594D01*
X303530Y254594D02*X304280Y253844D01*
X301280Y254594D02*X303530D01*
X302030Y251594D02*X303530D01*
X304280Y252344D01*
Y253844D02*Y252344D01*
X306081Y254594D02*X309081Y257594D01*
X306081Y254594D02*X309831D01*
X309081Y257594D02*Y251594D01*
X315083Y253844D02*Y251594D01*
Y253844D02*X315833Y254594D01*
X316583D01*
X317333Y253844D01*
Y251594D01*
Y253844D02*X318083Y254594D01*
X318833D01*
X319583Y253844D01*
Y251594D01*
X314333Y254594D02*X315083Y253844D01*
X321384Y256094D02*Y255344D01*
Y253844D02*Y251594D01*
X322886Y257594D02*Y252344D01*
X323636Y251594D01*
X325887D02*X328137D01*
X328887Y252344D01*
X328137Y253094D02*X328887Y252344D01*
X325887Y253094D02*X328137D01*
X325137Y253844D02*X325887Y253094D01*
X325137Y253844D02*X325887Y254594D01*
X328137D01*
X328887Y253844D01*
X325137Y252344D02*X325887Y251594D01*
X333389Y254594D02*Y252344D01*
X334139Y251594D01*
X334889D01*
X335639Y252344D01*
Y254594D02*Y252344D01*
X336389Y251594D01*
X337139D01*
X337889Y252344D01*
Y254594D02*Y252344D01*
X339690Y256094D02*Y255344D01*
Y253844D02*Y251594D01*
X344192Y257594D02*Y251594D01*
X343442D02*X344192Y252344D01*
X341942Y251594D02*X343442D01*
X341192Y252344D02*X341942Y251594D01*
X341192Y253844D02*Y252344D01*
Y253844D02*X341942Y254594D01*
X343442D01*
X344192Y253844D01*
X346743Y251594D02*X348993D01*
X345993Y252344D02*X346743Y251594D01*
X345993Y253844D02*Y252344D01*
Y253844D02*X346743Y254594D01*
X348243D01*
X348993Y253844D01*
X345993Y253094D02*X348993D01*
Y253844D02*Y253094D01*
X350795Y250094D02*X352295Y251594D01*
X356796Y256844D02*X357546Y257594D01*
X359796D01*
X360546Y256844D01*
Y255344D01*
X356796Y251594D02*X360546Y255344D01*
X356796Y251594D02*X360546D01*
X362348Y254594D02*X365348Y257594D01*
X362348Y254594D02*X366098D01*
X365348Y257594D02*Y251594D01*
X367899Y254594D02*X370899Y257594D01*
X367899Y254594D02*X371649D01*
X370899Y257594D02*Y251594D01*
X373451Y252344D02*X374201Y251594D01*
X373451Y256844D02*Y252344D01*
Y256844D02*X374201Y257594D01*
X375701D01*
X376451Y256844D01*
Y252344D01*
X375701Y251594D02*X376451Y252344D01*
X374201Y251594D02*X375701D01*
X373451Y253094D02*X376451Y256094D01*
X381702Y253844D02*Y251594D01*
Y253844D02*X382452Y254594D01*
X383202D01*
X383952Y253844D01*
Y251594D01*
Y253844D02*X384702Y254594D01*
X385452D01*
X386202Y253844D01*
Y251594D01*
X380952Y254594D02*X381702Y253844D01*
X388004Y256094D02*Y255344D01*
Y253844D02*Y251594D01*
X389505Y257594D02*Y252344D01*
X390255Y251594D01*
X392507D02*X394757D01*
X395507Y252344D01*
X394757Y253094D02*X395507Y252344D01*
X392507Y253094D02*X394757D01*
X391757Y253844D02*X392507Y253094D01*
X391757Y253844D02*X392507Y254594D01*
X394757D01*
X395507Y253844D01*
X391757Y252344D02*X392507Y251594D01*
X400008Y257594D02*Y251594D01*
Y253844D02*X400758Y254594D01*
X402258D01*
X403008Y253844D01*
Y251594D01*
X404810Y256094D02*Y255344D01*
Y253844D02*Y251594D01*
X408561Y254594D02*X409311Y253844D01*
X407061Y254594D02*X408561D01*
X406311Y253844D02*X407061Y254594D01*
X406311Y253844D02*Y252344D01*
X407061Y251594D01*
X408561D01*
X409311Y252344D01*
X406311Y250094D02*X407061Y249344D01*
X408561D01*
X409311Y250094D01*
Y254594D02*Y250094D01*
X411113Y257594D02*Y251594D01*
Y253844D02*X411863Y254594D01*
X413363D01*
X414113Y253844D01*
Y251594D01*
X13579Y-9500D02*X16579D01*
X17329Y-8750D01*
Y-7250D02*Y-8750D01*
X16579Y-6500D02*X17329Y-7250D01*
X14329Y-6500D02*X16579D01*
X14329Y-3500D02*Y-9500D01*
X13579Y-3500D02*X16579D01*
X17329Y-4250D01*
Y-5750D01*
X16579Y-6500D02*X17329Y-5750D01*
X19130Y-7250D02*Y-8750D01*
Y-7250D02*X19880Y-6500D01*
X21380D01*
X22130Y-7250D01*
Y-8750D01*
X21380Y-9500D02*X22130Y-8750D01*
X19880Y-9500D02*X21380D01*
X19130Y-8750D02*X19880Y-9500D01*
X26182Y-6500D02*X26932Y-7250D01*
X24682Y-6500D02*X26182D01*
X23932Y-7250D02*X24682Y-6500D01*
X23932Y-7250D02*Y-8750D01*
X24682Y-9500D01*
X26932Y-6500D02*Y-8750D01*
X27682Y-9500D01*
X24682D02*X26182D01*
X26932Y-8750D01*
X30233Y-7250D02*Y-9500D01*
Y-7250D02*X30983Y-6500D01*
X32483D01*
X29483D02*X30233Y-7250D01*
X37285Y-3500D02*Y-9500D01*
X36535D02*X37285Y-8750D01*
X35035Y-9500D02*X36535D01*
X34285Y-8750D02*X35035Y-9500D01*
X34285Y-7250D02*Y-8750D01*
Y-7250D02*X35035Y-6500D01*
X36535D01*
X37285Y-7250D01*
X41786D02*Y-8750D01*
Y-7250D02*X42536Y-6500D01*
X44036D01*
X44786Y-7250D01*
Y-8750D01*
X44036Y-9500D02*X44786Y-8750D01*
X42536Y-9500D02*X44036D01*
X41786Y-8750D02*X42536Y-9500D01*
X46588Y-6500D02*Y-8750D01*
X47338Y-9500D01*
X48838D01*
X49588Y-8750D01*
Y-6500D02*Y-8750D01*
X52139Y-3500D02*Y-8750D01*
X52889Y-9500D01*
X51389Y-5750D02*X52889D01*
X54391Y-3500D02*Y-8750D01*
X55141Y-9500D01*
X56642Y-5000D02*Y-5750D01*
Y-7250D02*Y-9500D01*
X58894Y-7250D02*Y-9500D01*
Y-7250D02*X59644Y-6500D01*
X60394D01*
X61144Y-7250D01*
Y-9500D01*
X58144Y-6500D02*X58894Y-7250D01*
X63695Y-9500D02*X65945D01*
X62945Y-8750D02*X63695Y-9500D01*
X62945Y-7250D02*Y-8750D01*
Y-7250D02*X63695Y-6500D01*
X65195D01*
X65945Y-7250D01*
X62945Y-8000D02*X65945D01*
Y-7250D02*Y-8000D01*
X70447Y-5000D02*Y-5750D01*
Y-7250D02*Y-9500D01*
X72698D02*X74948D01*
X75698Y-8750D01*
X74948Y-8000D02*X75698Y-8750D01*
X72698Y-8000D02*X74948D01*
X71948Y-7250D02*X72698Y-8000D01*
X71948Y-7250D02*X72698Y-6500D01*
X74948D01*
X75698Y-7250D01*
X71948Y-8750D02*X72698Y-9500D01*
X80950Y-3500D02*Y-8750D01*
X81700Y-9500D01*
X80200Y-5750D02*X81700D01*
X83201Y-3500D02*Y-9500D01*
Y-7250D02*X83951Y-6500D01*
X85451D01*
X86201Y-7250D01*
Y-9500D01*
X88753D02*X91003D01*
X88003Y-8750D02*X88753Y-9500D01*
X88003Y-7250D02*Y-8750D01*
Y-7250D02*X88753Y-6500D01*
X90253D01*
X91003Y-7250D01*
X88003Y-8000D02*X91003D01*
Y-7250D02*Y-8000D01*
X96254Y-6500D02*X98504D01*
X95504Y-7250D02*X96254Y-6500D01*
X95504Y-7250D02*Y-8750D01*
X96254Y-9500D01*
X98504D01*
X101056D02*X103306D01*
X100306Y-8750D02*X101056Y-9500D01*
X100306Y-7250D02*Y-8750D01*
Y-7250D02*X101056Y-6500D01*
X102556D01*
X103306Y-7250D01*
X100306Y-8000D02*X103306D01*
Y-7250D02*Y-8000D01*
X105857Y-7250D02*Y-9500D01*
Y-7250D02*X106607Y-6500D01*
X107357D01*
X108107Y-7250D01*
Y-9500D01*
X105107Y-6500D02*X105857Y-7250D01*
X110659Y-3500D02*Y-8750D01*
X111409Y-9500D01*
X109909Y-5750D02*X111409D01*
X113660Y-9500D02*X115910D01*
X112910Y-8750D02*X113660Y-9500D01*
X112910Y-7250D02*Y-8750D01*
Y-7250D02*X113660Y-6500D01*
X115160D01*
X115910Y-7250D01*
X112910Y-8000D02*X115910D01*
Y-7250D02*Y-8000D01*
X118462Y-7250D02*Y-9500D01*
Y-7250D02*X119212Y-6500D01*
X120712D01*
X117712D02*X118462Y-7250D01*
X122513Y-3500D02*Y-8750D01*
X123263Y-9500D01*
X124765Y-5000D02*Y-5750D01*
Y-7250D02*Y-9500D01*
X127016Y-7250D02*Y-9500D01*
Y-7250D02*X127766Y-6500D01*
X128516D01*
X129266Y-7250D01*
Y-9500D01*
X126266Y-6500D02*X127016Y-7250D01*
X131818Y-9500D02*X134068D01*
X131068Y-8750D02*X131818Y-9500D01*
X131068Y-7250D02*Y-8750D01*
Y-7250D02*X131818Y-6500D01*
X133318D01*
X134068Y-7250D01*
X131068Y-8000D02*X134068D01*
Y-7250D02*Y-8000D01*
X138569Y-7250D02*Y-8750D01*
Y-7250D02*X139319Y-6500D01*
X140819D01*
X141569Y-7250D01*
Y-8750D01*
X140819Y-9500D02*X141569Y-8750D01*
X139319Y-9500D02*X140819D01*
X138569Y-8750D02*X139319Y-9500D01*
X144121Y-4250D02*Y-9500D01*
Y-4250D02*X144871Y-3500D01*
X145621D01*
X143371Y-6500D02*X144871D01*
X150572Y-3500D02*Y-8750D01*
X151322Y-9500D01*
X149822Y-5750D02*X151322D01*
X152824Y-3500D02*Y-9500D01*
Y-7250D02*X153574Y-6500D01*
X155074D01*
X155824Y-7250D01*
Y-9500D01*
X157625Y-5000D02*Y-5750D01*
Y-7250D02*Y-9500D01*
X159877D02*X162127D01*
X162877Y-8750D01*
X162127Y-8000D02*X162877Y-8750D01*
X159877Y-8000D02*X162127D01*
X159127Y-7250D02*X159877Y-8000D01*
X159127Y-7250D02*X159877Y-6500D01*
X162127D01*
X162877Y-7250D01*
X159127Y-8750D02*X159877Y-9500D01*
X168128D02*X169628D01*
X168878Y-3500D02*Y-9500D01*
X167378Y-5000D02*X168878Y-3500D01*
X171430Y-8750D02*X172180Y-9500D01*
X171430Y-4250D02*Y-8750D01*
Y-4250D02*X172180Y-3500D01*
X173680D01*
X174430Y-4250D01*
Y-8750D01*
X173680Y-9500D02*X174430Y-8750D01*
X172180Y-9500D02*X173680D01*
X171430Y-8000D02*X174430Y-5000D01*
X179681Y-7250D02*Y-9500D01*
Y-7250D02*X180431Y-6500D01*
X181181D01*
X181931Y-7250D01*
Y-9500D01*
Y-7250D02*X182681Y-6500D01*
X183431D01*
X184181Y-7250D01*
Y-9500D01*
X178931Y-6500D02*X179681Y-7250D01*
X185983Y-5000D02*Y-5750D01*
Y-7250D02*Y-9500D01*
X187484Y-3500D02*Y-8750D01*
X188234Y-9500D01*
X193186Y-7250D02*Y-9500D01*
Y-7250D02*X193936Y-6500D01*
X195436D01*
X192436D02*X193186Y-7250D01*
X197987Y-9500D02*X200237D01*
X197237Y-8750D02*X197987Y-9500D01*
X197237Y-7250D02*Y-8750D01*
Y-7250D02*X197987Y-6500D01*
X199487D01*
X200237Y-7250D01*
X197237Y-8000D02*X200237D01*
Y-7250D02*Y-8000D01*
X202789Y-6500D02*X205039D01*
X202039Y-7250D02*X202789Y-6500D01*
X202039Y-7250D02*Y-8750D01*
X202789Y-9500D01*
X205039D01*
X207590Y-3500D02*Y-8750D01*
X208340Y-9500D01*
X206840Y-5750D02*X208340D01*
X212092Y-6500D02*X212842Y-7250D01*
X210592Y-6500D02*X212092D01*
X209842Y-7250D02*X210592Y-6500D01*
X209842Y-7250D02*Y-8750D01*
X210592Y-9500D01*
X212842Y-6500D02*Y-8750D01*
X213592Y-9500D01*
X210592D02*X212092D01*
X212842Y-8750D01*
X216143Y-7250D02*Y-9500D01*
Y-7250D02*X216893Y-6500D01*
X217643D01*
X218393Y-7250D01*
Y-9500D01*
X215393Y-6500D02*X216143Y-7250D01*
X222445Y-6500D02*X223195Y-7250D01*
X220945Y-6500D02*X222445D01*
X220195Y-7250D02*X220945Y-6500D01*
X220195Y-7250D02*Y-8750D01*
X220945Y-9500D01*
X222445D01*
X223195Y-8750D01*
X220195Y-11000D02*X220945Y-11750D01*
X222445D01*
X223195Y-11000D01*
Y-6500D02*Y-11000D01*
X224996Y-3500D02*Y-8750D01*
X225746Y-9500D01*
X227998D02*X230248D01*
X227248Y-8750D02*X227998Y-9500D01*
X227248Y-7250D02*Y-8750D01*
Y-7250D02*X227998Y-6500D01*
X229498D01*
X230248Y-7250D01*
X227248Y-8000D02*X230248D01*
Y-7250D02*Y-8000D01*
X234749Y-6500D02*X237749D01*
X242251Y-8750D02*X243001Y-9500D01*
X242251Y-4250D02*Y-8750D01*
Y-4250D02*X243001Y-3500D01*
X244501D01*
X245251Y-4250D01*
Y-8750D01*
X244501Y-9500D02*X245251Y-8750D01*
X243001Y-9500D02*X244501D01*
X242251Y-8000D02*X245251Y-5000D01*
X247052Y-11000D02*X248552Y-9500D01*
X250354Y-8750D02*X251104Y-9500D01*
X250354Y-4250D02*Y-8750D01*
Y-4250D02*X251104Y-3500D01*
X252604D01*
X253354Y-4250D01*
Y-8750D01*
X252604Y-9500D02*X253354Y-8750D01*
X251104Y-9500D02*X252604D01*
X250354Y-8000D02*X253354Y-5000D01*
X258605Y-3500D02*Y-8750D01*
X259355Y-9500D01*
X257855Y-5750D02*X259355D01*
X260857Y-7250D02*Y-8750D01*
Y-7250D02*X261607Y-6500D01*
X263107D01*
X263857Y-7250D01*
Y-8750D01*
X263107Y-9500D02*X263857Y-8750D01*
X261607Y-9500D02*X263107D01*
X260857Y-8750D02*X261607Y-9500D01*
X268358Y-4250D02*X269108Y-3500D01*
X270608D01*
X271358Y-4250D01*
Y-8750D01*
X270608Y-9500D02*X271358Y-8750D01*
X269108Y-9500D02*X270608D01*
X268358Y-8750D02*X269108Y-9500D01*
Y-6500D02*X271358D01*
X273160D02*X276160Y-3500D01*
X273160Y-6500D02*X276910D01*
X276160Y-3500D02*Y-9500D01*
X280961Y-3500D02*X281711Y-4250D01*
X279461Y-3500D02*X280961D01*
X278711Y-4250D02*X279461Y-3500D01*
X278711Y-4250D02*Y-8750D01*
X279461Y-9500D01*
X280961Y-6500D02*X281711Y-7250D01*
X278711Y-6500D02*X280961D01*
X279461Y-9500D02*X280961D01*
X281711Y-8750D01*
Y-7250D02*Y-8750D01*
X283513Y-6500D02*X286513Y-3500D01*
X283513Y-6500D02*X287263D01*
X286513Y-3500D02*Y-9500D01*
X289064Y-11000D02*X290564Y-9500D01*
X292366Y-4250D02*X293116Y-3500D01*
X295366D01*
X296116Y-4250D01*
Y-5750D01*
X292366Y-9500D02*X296116Y-5750D01*
X292366Y-9500D02*X296116D01*
X297917Y-6500D02*X300917Y-3500D01*
X297917Y-6500D02*X301667D01*
X300917Y-3500D02*Y-9500D01*
X303469Y-6500D02*X306469Y-3500D01*
X303469Y-6500D02*X307219D01*
X306469Y-3500D02*Y-9500D01*
X309020Y-8750D02*X309770Y-9500D01*
X309020Y-4250D02*Y-8750D01*
Y-4250D02*X309770Y-3500D01*
X311270D01*
X312020Y-4250D01*
Y-8750D01*
X311270Y-9500D02*X312020Y-8750D01*
X309770Y-9500D02*X311270D01*
X309020Y-8000D02*X312020Y-5000D01*
X317272Y-7250D02*Y-9500D01*
Y-7250D02*X318022Y-6500D01*
X318772D01*
X319522Y-7250D01*
Y-9500D01*
Y-7250D02*X320272Y-6500D01*
X321022D01*
X321772Y-7250D01*
Y-9500D01*
X316522Y-6500D02*X317272Y-7250D01*
X323573Y-5000D02*Y-5750D01*
Y-7250D02*Y-9500D01*
X325075Y-3500D02*Y-8750D01*
X325825Y-9500D01*
X328076D02*X330326D01*
X331076Y-8750D01*
X330326Y-8000D02*X331076Y-8750D01*
X328076Y-8000D02*X330326D01*
X327326Y-7250D02*X328076Y-8000D01*
X327326Y-7250D02*X328076Y-6500D01*
X330326D01*
X331076Y-7250D01*
X327326Y-8750D02*X328076Y-9500D01*
X200750Y272594D02*Y266594D01*
X203000Y272594D02*X203750Y271844D01*
Y267344D01*
X203000Y266594D02*X203750Y267344D01*
X200000Y266594D02*X203000D01*
X200000Y272594D02*X203000D01*
X207801Y269594D02*X208551Y268844D01*
X206301Y269594D02*X207801D01*
X205551Y268844D02*X206301Y269594D01*
X205551Y268844D02*Y267344D01*
X206301Y266594D01*
X208551Y269594D02*Y267344D01*
X209301Y266594D01*
X206301D02*X207801D01*
X208551Y267344D01*
X211853Y272594D02*Y267344D01*
X212603Y266594D01*
X211103Y270344D02*X212603D01*
X214854Y266594D02*X217104D01*
X214104Y267344D02*X214854Y266594D01*
X214104Y268844D02*Y267344D01*
Y268844D02*X214854Y269594D01*
X216354D01*
X217104Y268844D01*
X214104Y268094D02*X217104D01*
Y268844D02*Y268094D01*
X218906Y270344D02*X219656D01*
X218906Y268844D02*X219656D01*
X224157Y272594D02*X227157D01*
X225657D02*Y266594D01*
X228959Y272594D02*Y266594D01*
Y268844D02*X229709Y269594D01*
X231209D01*
X231959Y268844D01*
Y266594D01*
X233760Y269594D02*Y267344D01*
X234510Y266594D01*
X236010D01*
X236760Y267344D01*
Y269594D02*Y267344D01*
X241262Y271844D02*X242012Y272594D01*
X244262D01*
X245012Y271844D01*
Y270344D01*
X241262Y266594D02*X245012Y270344D01*
X241262Y266594D02*X245012D01*
X246813Y269594D02*X249813Y272594D01*
X246813Y269594D02*X250563D01*
X249813Y272594D02*Y266594D01*
X255065Y272594D02*Y266594D01*
Y272594D02*Y271844D01*
X258815Y268094D01*
Y272594D02*Y266594D01*
X260616Y268844D02*Y267344D01*
Y268844D02*X261366Y269594D01*
X262866D01*
X263616Y268844D01*
Y267344D01*
X262866Y266594D02*X263616Y267344D01*
X261366Y266594D02*X262866D01*
X260616Y267344D02*X261366Y266594D01*
X265418Y269594D02*Y268094D01*
X266918Y266594D01*
X268418Y268094D01*
Y269594D02*Y268094D01*
X272919Y271844D02*X273669Y272594D01*
X275919D01*
X276669Y271844D01*
Y270344D01*
X272919Y266594D02*X276669Y270344D01*
X272919Y266594D02*X276669D01*
X278471Y267344D02*X279221Y266594D01*
X278471Y271844D02*Y267344D01*
Y271844D02*X279221Y272594D01*
X280721D01*
X281471Y271844D01*
Y267344D01*
X280721Y266594D02*X281471Y267344D01*
X279221Y266594D02*X280721D01*
X278471Y268094D02*X281471Y271094D01*
X284022Y266594D02*X285522D01*
X284772Y272594D02*Y266594D01*
X283272Y271094D02*X284772Y272594D01*
X288074Y266594D02*X289574D01*
X288824Y272594D02*Y266594D01*
X287324Y271094D02*X288824Y272594D01*
X294075Y267344D02*X294825Y266594D01*
X294075Y271844D02*Y267344D01*
Y271844D02*X294825Y272594D01*
X296325D01*
X297075Y271844D01*
Y267344D01*
X296325Y266594D02*X297075Y267344D01*
X294825Y266594D02*X296325D01*
X294075Y268094D02*X297075Y271094D01*
X298877Y269594D02*X301877Y272594D01*
X298877Y269594D02*X302627D01*
X301877Y272594D02*Y266594D01*
X304428Y270344D02*X305178D01*
X304428Y268844D02*X305178D01*
X306980Y272594D02*X309980D01*
X306980D02*Y269594D01*
X307730Y270344D01*
X309230D01*
X309980Y269594D01*
Y267344D01*
X309230Y266594D02*X309980Y267344D01*
X307730Y266594D02*X309230D01*
X306980Y267344D02*X307730Y266594D01*
X314031Y272594D02*X314781Y271844D01*
X312531Y272594D02*X314031D01*
X311781Y271844D02*X312531Y272594D01*
X311781Y271844D02*Y267344D01*
X312531Y266594D01*
X314031Y269594D02*X314781Y268844D01*
X311781Y269594D02*X314031D01*
X312531Y266594D02*X314031D01*
X314781Y267344D01*
Y268844D02*Y267344D01*
X316583Y270344D02*X317333D01*
X316583Y268844D02*X317333D01*
X319134Y267344D02*X319884Y266594D01*
X319134Y271844D02*Y267344D01*
Y271844D02*X319884Y272594D01*
X321384D01*
X322134Y271844D01*
Y267344D01*
X321384Y266594D02*X322134Y267344D01*
X319884Y266594D02*X321384D01*
X319134Y268094D02*X322134Y271094D01*
X323936Y266594D02*X326936Y269594D01*
Y271844D02*Y269594D01*
X326186Y272594D02*X326936Y271844D01*
X324686Y272594D02*X326186D01*
X323936Y271844D02*X324686Y272594D01*
X323936Y271844D02*Y270344D01*
X324686Y269594D01*
X326936D01*
X332187Y272594D02*Y266594D01*
X331437Y272594D02*X334437D01*
X335187Y271844D01*
Y270344D01*
X334437Y269594D02*X335187Y270344D01*
X332187Y269594D02*X334437D01*
X336989Y272594D02*Y266594D01*
Y272594D02*X339239Y270344D01*
X341489Y272594D01*
Y266594D01*
X348990Y272594D02*X349740Y271844D01*
X346740Y272594D02*X348990D01*
X345990Y271844D02*X346740Y272594D01*
X345990Y271844D02*Y267344D01*
X346740Y266594D01*
X348990D01*
X349740Y267344D01*
Y268844D02*Y267344D01*
X348990Y269594D02*X349740Y268844D01*
X347490Y269594D02*X348990D01*
X351542Y272594D02*Y266594D01*
Y272594D02*X353792Y270344D01*
X356042Y272594D01*
Y266594D01*
X357843Y272594D02*X360843D01*
X359343D02*Y266594D01*
X365345Y272594D02*Y267344D01*
X366095Y266594D01*
X367595D01*
X368345Y267344D01*
Y272594D02*Y267344D01*
X370146Y272594D02*X373146D01*
X371646D02*Y266594D01*
X375698D02*X377948D01*
X374948Y267344D02*X375698Y266594D01*
X374948Y271844D02*Y267344D01*
Y271844D02*X375698Y272594D01*
X377948D01*
X200000Y286844D02*Y281594D01*
Y286844D02*X200750Y287594D01*
X203000D01*
X203750Y286844D01*
Y281594D01*
X200000Y284594D02*X203750D01*
X205551D02*Y282344D01*
X206301Y281594D01*
X207801D01*
X208551Y282344D01*
Y284594D02*Y282344D01*
X211103Y287594D02*Y282344D01*
X211853Y281594D01*
X210353Y285344D02*X211853D01*
X213354Y287594D02*Y281594D01*
Y283844D02*X214104Y284594D01*
X215604D01*
X216354Y283844D01*
Y281594D01*
X218156Y283844D02*Y282344D01*
Y283844D02*X218906Y284594D01*
X220406D01*
X221156Y283844D01*
Y282344D01*
X220406Y281594D02*X221156Y282344D01*
X218906Y281594D02*X220406D01*
X218156Y282344D02*X218906Y281594D01*
X223707Y283844D02*Y281594D01*
Y283844D02*X224457Y284594D01*
X225957D01*
X222957D02*X223707Y283844D01*
X227759Y285344D02*X228509D01*
X227759Y283844D02*X228509D01*
X235260Y284594D02*X236010Y283844D01*
X233760Y284594D02*X235260D01*
X233010Y283844D02*X233760Y284594D01*
X233010Y283844D02*Y282344D01*
X233760Y281594D01*
X236010Y284594D02*Y282344D01*
X236760Y281594D01*
X233760D02*X235260D01*
X236010Y282344D01*
X239312Y283844D02*Y281594D01*
Y283844D02*X240062Y284594D01*
X240812D01*
X241562Y283844D01*
Y281594D01*
X238562Y284594D02*X239312Y283844D01*
X246363Y287594D02*Y281594D01*
X245613D02*X246363Y282344D01*
X244113Y281594D02*X245613D01*
X243363Y282344D02*X244113Y281594D01*
X243363Y283844D02*Y282344D01*
Y283844D02*X244113Y284594D01*
X245613D01*
X246363Y283844D01*
X248165Y284594D02*Y282344D01*
X248915Y281594D01*
X251165Y284594D02*Y280094D01*
X250415Y279344D02*X251165Y280094D01*
X248915Y279344D02*X250415D01*
X248165Y280094D02*X248915Y279344D01*
Y281594D02*X250415D01*
X251165Y282344D01*
X200000Y302594D02*X203000D01*
X201500D02*Y296594D01*
X204801Y301094D02*Y300344D01*
Y298844D02*Y296594D01*
X207053Y302594D02*Y297344D01*
X207803Y296594D01*
X206303Y300344D02*X207803D01*
X209304Y302594D02*Y297344D01*
X210054Y296594D01*
X212306D02*X214556D01*
X211556Y297344D02*X212306Y296594D01*
X211556Y298844D02*Y297344D01*
Y298844D02*X212306Y299594D01*
X213806D01*
X214556Y298844D01*
X211556Y298094D02*X214556D01*
Y298844D02*Y298094D01*
X216357Y300344D02*X217107D01*
X216357Y298844D02*X217107D01*
X221609Y297344D02*X222359Y296594D01*
X221609Y301844D02*X222359Y302594D01*
X221609Y301844D02*Y297344D01*
X224160Y299594D02*Y297344D01*
X224910Y296594D01*
X226410D01*
X227160Y297344D01*
Y299594D02*Y297344D01*
X229712Y298844D02*Y296594D01*
Y298844D02*X230462Y299594D01*
X231212D01*
X231962Y298844D01*
Y296594D01*
X228962Y299594D02*X229712Y298844D01*
X233763Y302594D02*Y296594D01*
Y298844D02*X236013Y296594D01*
X233763Y298844D02*X235263Y300344D01*
X238565Y298844D02*Y296594D01*
Y298844D02*X239315Y299594D01*
X240065D01*
X240815Y298844D01*
Y296594D01*
X237815Y299594D02*X238565Y298844D01*
X242616D02*Y297344D01*
Y298844D02*X243366Y299594D01*
X244866D01*
X245616Y298844D01*
Y297344D01*
X244866Y296594D02*X245616Y297344D01*
X243366Y296594D02*X244866D01*
X242616Y297344D02*X243366Y296594D01*
X247418Y299594D02*Y297344D01*
X248168Y296594D01*
X248918D01*
X249668Y297344D01*
Y299594D02*Y297344D01*
X250418Y296594D01*
X251168D01*
X251918Y297344D01*
Y299594D02*Y297344D01*
X254469Y298844D02*Y296594D01*
Y298844D02*X255219Y299594D01*
X255969D01*
X256719Y298844D01*
Y296594D01*
X253719Y299594D02*X254469Y298844D01*
X258521Y302594D02*X259271Y301844D01*
Y297344D01*
X258521Y296594D02*X259271Y297344D01*
X263772Y299594D02*X266772D01*
X271274Y302594D02*Y296594D01*
Y302594D02*X274274D01*
X271274Y299594D02*X273524D01*
X278325D02*X279075Y298844D01*
X276825Y299594D02*X278325D01*
X276075Y298844D02*X276825Y299594D01*
X276075Y298844D02*Y297344D01*
X276825Y296594D01*
X279075Y299594D02*Y297344D01*
X279825Y296594D01*
X276825D02*X278325D01*
X279075Y297344D01*
X281627Y302594D02*Y296594D01*
Y297344D02*X282377Y296594D01*
X283877D01*
X284627Y297344D01*
Y298844D02*Y297344D01*
X283877Y299594D02*X284627Y298844D01*
X282377Y299594D02*X283877D01*
X281627Y298844D02*X282377Y299594D01*
X287178Y298844D02*Y296594D01*
Y298844D02*X287928Y299594D01*
X289428D01*
X286428D02*X287178Y298844D01*
X291230Y301094D02*Y300344D01*
Y298844D02*Y296594D01*
X293481Y299594D02*X295731D01*
X292731Y298844D02*X293481Y299594D01*
X292731Y298844D02*Y297344D01*
X293481Y296594D01*
X295731D01*
X299783Y299594D02*X300533Y298844D01*
X298283Y299594D02*X299783D01*
X297533Y298844D02*X298283Y299594D01*
X297533Y298844D02*Y297344D01*
X298283Y296594D01*
X300533Y299594D02*Y297344D01*
X301283Y296594D01*
X298283D02*X299783D01*
X300533Y297344D01*
X303834Y302594D02*Y297344D01*
X304584Y296594D01*
X303084Y300344D02*X304584D01*
X306086Y301094D02*Y300344D01*
Y298844D02*Y296594D01*
X307587Y298844D02*Y297344D01*
Y298844D02*X308337Y299594D01*
X309837D01*
X310587Y298844D01*
Y297344D01*
X309837Y296594D02*X310587Y297344D01*
X308337Y296594D02*X309837D01*
X307587Y297344D02*X308337Y296594D01*
X313139Y298844D02*Y296594D01*
Y298844D02*X313889Y299594D01*
X314639D01*
X315389Y298844D01*
Y296594D01*
X312389Y299594D02*X313139Y298844D01*
X320640Y302594D02*Y296594D01*
X322890Y302594D02*X323640Y301844D01*
Y297344D01*
X322890Y296594D02*X323640Y297344D01*
X319890Y296594D02*X322890D01*
X319890Y302594D02*X322890D01*
X326192Y298844D02*Y296594D01*
Y298844D02*X326942Y299594D01*
X328442D01*
X325442D02*X326192Y298844D01*
X332493Y299594D02*X333243Y298844D01*
X330993Y299594D02*X332493D01*
X330243Y298844D02*X330993Y299594D01*
X330243Y298844D02*Y297344D01*
X330993Y296594D01*
X333243Y299594D02*Y297344D01*
X333993Y296594D01*
X330993D02*X332493D01*
X333243Y297344D01*
X335795Y299594D02*Y297344D01*
X336545Y296594D01*
X337295D01*
X338045Y297344D01*
Y299594D02*Y297344D01*
X338795Y296594D01*
X339545D01*
X340295Y297344D01*
Y299594D02*Y297344D01*
X342096Y301094D02*Y300344D01*
Y298844D02*Y296594D01*
X344348Y298844D02*Y296594D01*
Y298844D02*X345098Y299594D01*
X345848D01*
X346598Y298844D01*
Y296594D01*
X343598Y299594D02*X344348Y298844D01*
X350649Y299594D02*X351399Y298844D01*
X349149Y299594D02*X350649D01*
X348399Y298844D02*X349149Y299594D01*
X348399Y298844D02*Y297344D01*
X349149Y296594D01*
X350649D01*
X351399Y297344D01*
X348399Y295094D02*X349149Y294344D01*
X350649D01*
X351399Y295094D01*
Y299594D02*Y295094D01*
M02*
