M48
INCH
T223C0.035
T222C0.043
T221C0.128
T220C0.028
T219C0.038
T218C0.030
%
T220
X017500Y021909
X017500Y020909
X017500Y019909
X017500Y018909
X017500Y017909
X017500Y016909
X013764Y003464
X013764Y005464
X009984Y007752
X012984Y007752
X012984Y008752
X012984Y009752
X012984Y010752
X009984Y010752
X009984Y009752
X009984Y008752
X012984Y011752
X009984Y011752
X012984Y012752
X012984Y013752
X009984Y013752
X009984Y012752
X017500Y015909
X017500Y014909
X017500Y013909
X017500Y012909
X017500Y011909
X017500Y010909
X017500Y009909
X017500Y008909
X017500Y007909
X017500Y006909
X017500Y005909
X017500Y004909
X017500Y003909
X017500Y002909
X023500Y002909
X023500Y003909
X023500Y004909
X023500Y005909
X023500Y006909
X023500Y007909
X023500Y008909
X023500Y009909
X023500Y010909
X023500Y011909
X023500Y012909
X023500Y013909
X023500Y014909
X023500Y015909
X023500Y016909
X023500Y017909
X023500Y018909
X023500Y019909
X023500Y020909
X023500Y021909
T218
X021787Y023016
X019787Y023016
X005512Y006724
X006512Y006224
X005512Y005724
X006512Y005224
X005512Y004724
X006512Y004224
X005512Y003724
X006512Y003224
X007480Y000851
X011480Y000851
X001744Y000843
X005744Y000843
X007925Y019689
X011925Y019689
X007925Y020689
X011925Y020689
X007925Y021689
X011925Y021689
X003024Y013276
X001024Y013276
X003024Y011276
X001024Y011276
X006512Y010445
X006512Y014445
X027000Y005409
X029000Y005409
X033000Y005409
X031000Y005409
X033000Y009409
X031000Y009409
X029000Y009409
X027000Y009409
X031630Y011874
X033130Y012874
X033130Y014874
X031630Y015874
X011835Y003390
X011835Y005464
X009835Y003390
X009835Y005464
X010524Y014776
X012524Y014776
T223
X020500Y003909
X015000Y006409
X016000Y006409
X016000Y004409
X025000Y007409
X020500Y008409
X018500Y007909
X009000Y007909
X005500Y008909
X001000Y009909
X008658Y009752
X007480Y009842
X018500Y006909
X007874Y001968
X010000Y006409
X032000Y001409
X030500Y013409
X026000Y007409
X025500Y012909
X008000Y012409
X002000Y012409
X022000Y012909
X011000Y022909
X010244Y019165
X007500Y022909
X009000Y018409
X012402Y015945
X004500Y013409
X004500Y015409
X018500Y016909
X018500Y017909
X026500Y014409
X016000Y009909
X015500Y010909
X016000Y020909
X020000Y013909
X020000Y011909
X019500Y010909
X015000Y017909
X016000Y014909
X015000Y016909
X016000Y016909
X019000Y014909
T219
X014500Y021909
X014500Y020909
X014500Y019909
X010236Y001968
X009236Y001968
X013500Y021909
X013500Y020909
X013500Y019909
X010827Y016929
X011827Y016929
X012827Y016929
X013827Y016929
X028000Y015409
X029000Y015409
X028000Y014409
X029000Y014409
X028000Y013409
X029000Y013409
X028000Y012409
X029000Y012409
X028000Y011409
X029000Y011409
X025378Y022835
X026378Y022835
X027378Y022835
X028378Y022835
X029378Y022835
X030378Y022835
X031378Y022835
X032378Y022835
T222
X004024Y010276
X005024Y010276
X027000Y002909
X027000Y003909
X029000Y002909
X033000Y002909
X031000Y002909
X029000Y003909
X033000Y003909
X031000Y003909
T221
X003012Y002724
X003012Y007224
M30
