G04 start of page 13 for group -4079 idx -4079 *
G04 Title: (unknown), topsilk *
G04 Creator: pcb 20100929 *
G04 CreationDate: Thu 24 Nov 2011 04:56:09 PM GMT UTC *
G04 For: andy *
G04 Format: Gerber/RS-274X *
G04 PCB-Dimensions: 346457 244094 *
G04 PCB-Coordinate-Origin: lower left *
%MOIN*%
%FSLAX25Y25*%
%LNFRONTSILK*%
%ADD13C,0.0200*%
%ADD25C,0.0150*%
%ADD40C,0.0100*%
%ADD41C,0.0020*%
%ADD42C,0.0050*%
%ADD43C,0.0110*%
G54D40*X264413Y39681D02*G75*G03X264413Y28507I5586J-5586D01*G01*
X275586Y28508D02*G75*G03X275586Y39680I-5586J5586D01*G01*
X265828Y38266D02*G75*G03X265828Y29922I4171J-4171D01*G01*
X274171Y29923D02*G75*G03X274171Y38265I-4171J4171D01*G01*
X284413Y39681D02*G75*G03X284413Y28507I5586J-5586D01*G01*
X295586Y28508D02*G75*G03X295586Y39680I-5586J5586D01*G01*
X285828Y38266D02*G75*G03X285828Y29922I4171J-4171D01*G01*
X294171Y29923D02*G75*G03X294171Y38265I-4171J4171D01*G01*
X306700Y64094D02*X313300D01*
Y84094D02*Y64094D01*
X306700Y84094D02*X313300D01*
X306700D02*Y64094D01*
X310000Y94094D02*Y84094D01*
Y64094D02*Y54094D01*
X286700Y64094D02*X293300D01*
Y84094D02*Y64094D01*
X286700Y84094D02*X293300D01*
X286700D02*Y64094D01*
X290000Y94094D02*Y84094D01*
Y64094D02*Y54094D01*
X266700Y64094D02*X273300D01*
Y84094D02*Y64094D01*
X266700Y84094D02*X273300D01*
X266700D02*Y64094D01*
X270000Y94094D02*Y84094D01*
Y64094D02*Y54094D01*
X324413Y39681D02*G75*G03X324413Y28507I5586J-5586D01*G01*
X335586Y28508D02*G75*G03X335586Y39680I-5586J5586D01*G01*
X325828Y38266D02*G75*G03X325828Y29922I4171J-4171D01*G01*
X334171Y29923D02*G75*G03X334171Y38265I-4171J4171D01*G01*
X326700Y64094D02*X333300D01*
Y84094D02*Y64094D01*
X326700Y84094D02*X333300D01*
X326700D02*Y64094D01*
X330000Y94094D02*Y84094D01*
Y64094D02*Y54094D01*
X285000Y149094D02*Y159094D01*
X275000Y149094D02*X285000D01*
X295000Y159094D02*X275000D01*
X295000Y109094D02*Y159094D01*
X275000Y109094D02*X295000D01*
X275000Y159094D02*Y109094D01*
X304413Y39681D02*G75*G03X304413Y28507I5586J-5586D01*G01*
X315586Y28508D02*G75*G03X315586Y39680I-5586J5586D01*G01*
X305828Y38266D02*G75*G03X305828Y29922I4171J-4171D01*G01*
X314171Y29923D02*G75*G03X314171Y38265I-4171J4171D01*G01*
X329699Y133740D02*X332899D01*
Y143740D02*Y133740D01*
X329699Y143740D02*X332899D01*
X329699D02*Y133740D01*
X331299Y148740D02*Y143740D01*
Y133740D02*Y128740D01*
X212874Y231757D02*Y228557D01*
X202874Y231757D02*X212874D01*
X202874D02*Y228557D01*
X212874D01*
X197874Y230157D02*X202874D01*
X212874D02*X217874D01*
G54D25*X248780Y230846D02*Y225846D01*
X251280Y223346D02*X256280D01*
X251280D02*X248780Y225846D01*
X256280Y223346D02*X258780Y225846D01*
X261280Y223346D02*X266280D01*
X261280D02*X258780Y225846D01*
X266280Y223346D02*X268780Y225846D01*
X271280Y223346D02*X276280D01*
X271280D02*X268780Y225846D01*
X276280Y223346D02*X278780Y225846D01*
X281280Y223346D02*X286280D01*
X281280D02*X278780Y225846D01*
X286280Y223346D02*X288780Y225846D01*
X291280Y223346D02*X296280D01*
X291280D02*X288780Y225846D01*
X296280Y223346D02*X298780Y225846D01*
X301280Y223346D02*X306280D01*
X301280D02*X298780Y225846D01*
X306280Y223346D02*X308780Y225846D01*
X311280Y223346D02*X316280D01*
X311280D02*X308780Y225846D01*
X316280Y223346D02*X318780Y225846D01*
X321280Y223346D02*X326280D01*
X321280D02*X318780Y225846D01*
X326280Y223346D02*X328780Y225846D01*
X251280Y233346D02*X256280D01*
X251280D02*X248780Y230846D01*
X256280Y233346D02*X258780Y230846D01*
X261280Y233346D02*X266280D01*
X261280D02*X258780Y230846D01*
X266280Y233346D02*X268780Y230846D01*
X271280Y233346D02*X276280D01*
X271280D02*X268780Y230846D01*
X276280Y233346D02*X278780Y230846D01*
X281280Y233346D02*X286280D01*
X281280D02*X278780Y230846D01*
X286280Y233346D02*X288780Y230846D01*
X291280Y233346D02*X296280D01*
X291280D02*X288780Y230846D01*
X296280Y233346D02*X298780Y230846D01*
X301280Y233346D02*X306280D01*
X301280D02*X298780Y230846D01*
X306280Y233346D02*X308780Y230846D01*
X311280Y233346D02*X316280D01*
X311280D02*X308780Y230846D01*
X316280Y233346D02*X318780Y230846D01*
X321280Y233346D02*X326280D01*
X321280D02*X318780Y230846D01*
X326280Y233346D02*X328780Y230846D01*
Y225846D01*
G54D40*X312999Y128740D02*X319599D01*
Y148740D02*Y128740D01*
X312999Y148740D02*X319599D01*
X312999D02*Y128740D01*
X316299Y158740D02*Y148740D01*
Y128740D02*Y118740D01*
X210000Y224094D02*X240000D01*
X170000D02*X200000D01*
X240000Y24094D02*Y224094D01*
X170000Y24094D02*X240000D01*
X170000Y224094D02*Y24094D01*
X200000Y224094D02*G75*G03X210000Y224094I5000J0D01*G01*
X142636Y54645D02*Y34645D01*
X132636Y54645D02*Y34645D01*
X142636Y54645D02*G75*G03X132636Y54645I-5000J0D01*G01*
Y34645D02*G75*G03X142636Y34645I5000J0D01*G01*
X113346Y35497D02*Y32297D01*
X103346Y35497D02*X113346D01*
X103346D02*Y32297D01*
X113346D01*
X98346Y33897D02*X103346D01*
X113346D02*X118346D01*
X113346Y56245D02*Y53045D01*
X103346Y56245D02*X113346D01*
X103346D02*Y53045D01*
X113346D01*
X98346Y54645D02*X103346D01*
X113346D02*X118346D01*
X94842Y72519D02*X109842D01*
X119842D02*X134842D01*
X94842Y142519D02*Y72519D01*
Y142519D02*X134842D01*
Y72519D01*
X119842D02*G75*G03X109842Y72519I-5000J0D01*G01*
X110236Y149355D02*Y146155D01*
X120236D01*
Y149355D02*Y146155D01*
X110236Y149355D02*X120236D01*
Y147755D02*X125236D01*
X105236D02*X110236D01*
X107362Y24685D02*Y14685D01*
X87362Y24685D02*X107362D01*
X87362D02*Y14685D01*
X107362D01*
X97362Y24685D02*X107362D01*
X97362D02*Y14685D01*
X74803Y8511D02*X84803D01*
X104803D02*X114803D01*
X84803Y11811D02*X104803D01*
Y5211D01*
X84803D01*
Y11811D01*
G54D13*X-882Y19743D02*X70418D01*
X-882Y79743D02*X70418D01*
Y19743D01*
X-882Y79743D02*X-902Y19743D01*
G54D40*X17441Y8432D02*X27441D01*
X47441D02*X57441D01*
X27441Y11732D02*X47441D01*
Y5132D01*
X27441D01*
Y11732D01*
X89252Y193589D02*Y200189D01*
X109252Y193589D02*X89252D01*
X109252Y200189D02*Y193589D01*
X89252Y200189D02*X109252D01*
Y196889D02*X119252D01*
X79252D02*X89252D01*
G54D25*X103110Y171791D02*Y166791D01*
X105610Y164291D02*X110610D01*
X105610D02*X103110Y166791D01*
X110610Y164291D02*X113110Y166791D01*
X115610Y164291D02*X120610D01*
X115610D02*X113110Y166791D01*
X120610Y164291D02*X123110Y166791D01*
X125610Y164291D02*X130610D01*
X125610D02*X123110Y166791D01*
X130610Y164291D02*X133110Y166791D01*
X135610Y164291D02*X140610D01*
X135610D02*X133110Y166791D01*
X140610Y164291D02*X143110Y166791D01*
X105610Y174291D02*X110610D01*
X105610D02*X103110Y171791D01*
X110610Y174291D02*X113110Y171791D01*
X115610Y174291D02*X120610D01*
X115610D02*X113110Y171791D01*
X120610Y174291D02*X123110Y171791D01*
X125610Y174291D02*X130610D01*
X125610D02*X123110Y171791D01*
X130610Y174291D02*X133110Y171791D01*
X135610Y174291D02*X140610D01*
X135610D02*X133110Y171791D01*
X140610Y174291D02*X143110Y171791D01*
Y166791D01*
G54D40*X89252Y203589D02*Y210189D01*
X109252Y203589D02*X89252D01*
X109252Y210189D02*Y203589D01*
X89252Y210189D02*X109252D01*
Y206889D02*X119252D01*
X79252D02*X89252D01*
Y213589D02*Y220189D01*
X109252Y213589D02*X89252D01*
X109252Y220189D02*Y213589D01*
X89252Y220189D02*X109252D01*
Y216889D02*X119252D01*
X79252D02*X89252D01*
X140000Y214094D02*Y224094D01*
X130000Y214094D02*X140000D01*
X150000Y224094D02*X130000D01*
X150000Y194094D02*Y224094D01*
X130000Y194094D02*X150000D01*
X130000Y224094D02*Y194094D01*
G54D41*X40787Y177873D02*X47086D01*
X40787Y210944D02*X47086D01*
X40787D02*Y177873D01*
X47086Y210944D02*Y177873D01*
X41968Y213700D02*Y210944D01*
X12047Y213700D02*X41968D01*
X12047D02*Y210944D01*
X41968D01*
X64999Y218031D02*Y215078D01*
X53188Y218031D02*X64999D01*
X53188D02*Y215078D01*
X64999D01*
X4960Y178661D02*X3779Y177480D01*
X4173Y178661D02*X3779Y178267D01*
X8897Y177874D02*X3779Y172756D01*
X8897Y177087D02*X3779Y171969D01*
Y178661D02*Y168031D01*
X8897D01*
Y178661D02*Y168031D01*
X3779Y178661D02*X8897D01*
X64999Y218031D02*X62047Y215079D01*
X64999Y217243D02*X62834Y215078D01*
X64999Y216456D02*X63621Y215078D01*
X64999Y215669D02*X64409Y215079D01*
X64212Y218031D02*X61260Y215079D01*
X63425Y218031D02*X60473Y215079D01*
X62638Y218031D02*X59686Y215079D01*
X61850Y218031D02*X58898Y215079D01*
X61063Y218031D02*X58111Y215079D01*
X60275Y218031D02*X57323Y215079D01*
X59488Y218031D02*X56536Y215079D01*
X58701Y218031D02*X55749Y215079D01*
X57913Y218031D02*X54961Y215079D01*
X57126Y218031D02*X54174Y215079D01*
X56338Y218031D02*X53386Y215079D01*
X55551Y218031D02*X53189Y215670D01*
X54763Y218031D02*X53188Y216456D01*
X53976Y218031D02*X53188Y217243D01*
X33896Y218031D02*X33306Y217440D01*
X8897Y176299D02*X3779Y171181D01*
X8897Y175512D02*X3779Y170394D01*
X8897Y174724D02*X3779Y169606D01*
X8897Y173937D02*X3779Y168819D01*
X8897Y173150D02*X3779Y168032D01*
X4566D02*X8897Y172363D01*
X5354Y168032D02*X8897Y171575D01*
X6141Y168032D02*X8897Y170788D01*
X6929Y168032D02*X8897Y170000D01*
X7716Y168032D02*X8897Y169213D01*
X8503Y168032D02*X8897Y168426D01*
G54D42*X3779Y210944D02*Y166850D01*
X15590Y218031D02*X22873D01*
X27991D02*X46495D01*
X53188D02*X66771D01*
Y215669D01*
Y176298D02*Y175511D01*
Y169606D02*Y160944D01*
X12047D02*X66771D01*
X3779Y210944D02*X4763Y211928D01*
Y213503D02*Y211928D01*
G54D41*X41968Y213700D02*X39212Y210944D01*
X41968Y212913D02*X39999Y210944D01*
X41968Y212125D02*X40787Y210944D01*
X42362D02*X40787Y209369D01*
X41181Y213700D02*X38425Y210944D01*
X40393Y213700D02*X37637Y210944D01*
X39606Y213700D02*X36850Y210944D01*
X38818Y213700D02*X36062Y210944D01*
X38031Y213700D02*X35275Y210944D01*
X37244Y213700D02*X34488Y210944D01*
X36456Y213700D02*X33700Y210944D01*
X35669Y213700D02*X32913Y210944D01*
X34881Y213700D02*X32125Y210944D01*
X34094Y213700D02*X31338Y210944D01*
X33307Y213700D02*X30551Y210944D01*
X32519Y213700D02*X29763Y210944D01*
X31732Y213700D02*X28976Y210944D01*
X30944Y213700D02*X28188Y210944D01*
X30156Y213700D02*X27400Y210944D01*
X29369Y213700D02*X26613Y210944D01*
X28582Y213700D02*X25826Y210944D01*
X27794Y213700D02*X25038Y210944D01*
X27007Y213700D02*X24251Y210944D01*
X26219Y213700D02*X23463Y210944D01*
X25432Y213700D02*X22676Y210944D01*
X24645Y213700D02*X21889Y210944D01*
X23857Y213700D02*X21101Y210944D01*
X23070Y213700D02*X20314Y210944D01*
X22282Y213700D02*X19526Y210944D01*
X21495Y213700D02*X18739Y210944D01*
X20708Y213700D02*X17952Y210944D01*
X19921Y213700D02*X17165Y210944D01*
X19133Y213700D02*X16377Y210944D01*
X18346Y213700D02*X15590Y210944D01*
X17558Y213700D02*X14802Y210944D01*
X16771Y213700D02*X14015Y210944D01*
X15984Y213700D02*X13228Y210944D01*
X15196Y213700D02*X12440Y210944D01*
X14409Y213700D02*X12047Y211338D01*
X13621Y213700D02*X12047Y212125D01*
X12834Y213700D02*X12047Y212913D01*
X47086Y210944D02*X40787Y204645D01*
X46299Y210944D02*X40787Y205432D01*
X45511Y210944D02*X40787Y206220D01*
X44724Y210944D02*X40787Y207007D01*
X43936Y210944D02*X40786Y207794D01*
X43149Y210944D02*X40787Y208582D01*
X41968Y211338D02*X40787Y210157D01*
X47086Y210156D02*X40787Y203857D01*
X47086Y209369D02*X40787Y203070D01*
X47086Y208581D02*X40787Y202282D01*
X47086Y207794D02*X40787Y201495D01*
X47086Y207006D02*X40787Y200707D01*
X47086Y206219D02*X40787Y199920D01*
X47086Y205431D02*X40787Y199132D01*
X47086Y204644D02*X40787Y198345D01*
X47086Y203856D02*X40787Y197557D01*
X47086Y203069D02*X40787Y196770D01*
X47086Y202281D02*X40787Y195982D01*
X47086Y201494D02*X40787Y195195D01*
X47086Y200706D02*X40787Y194407D01*
X47086Y199919D02*X40787Y193620D01*
X47086Y199131D02*X40787Y192832D01*
X47086Y198345D02*X40787Y192046D01*
X47086Y197557D02*X40787Y191258D01*
X47086Y196770D02*X40787Y190471D01*
X47086Y195982D02*X40787Y189683D01*
X47086Y195195D02*X40787Y188896D01*
X47086Y194407D02*X40787Y188108D01*
X47086Y193620D02*X40787Y187321D01*
X47086Y192832D02*X40787Y186533D01*
X47086Y192046D02*X40787Y185747D01*
X47086Y191258D02*X40787Y184959D01*
X47086Y190471D02*X40787Y184172D01*
X47086Y189683D02*X40787Y183384D01*
X47086Y188896D02*X40787Y182597D01*
X47086Y188108D02*X40787Y181809D01*
X47086Y187321D02*X40787Y181022D01*
X47086Y186533D02*X40787Y180234D01*
X47086Y185747D02*X40787Y179448D01*
X47086Y184959D02*X40787Y178660D01*
X47086Y184172D02*X40787Y177873D01*
X47086Y183384D02*X41574Y177872D01*
X47086Y182597D02*X42362Y177873D01*
X47086Y181809D02*X43149Y177873D01*
X47086Y181022D02*X43936Y177872D01*
X47086Y180234D02*X44724Y177872D01*
X47086Y179448D02*X45511Y177873D01*
X47086Y178661D02*X46299Y177874D01*
X8897Y178661D02*X3779Y173543D01*
X8110Y178661D02*X3779Y174330D01*
X7322Y178661D02*X3779Y175118D01*
X6535Y178661D02*X3779Y175905D01*
X5747Y178661D02*X3779Y176693D01*
X33306Y218031D02*X46495D01*
X33305D02*Y215078D01*
X33306D02*X46495D01*
Y218031D02*Y215078D01*
Y218031D02*X43543Y215079D01*
X46495Y217243D02*X44330Y215078D01*
X46495Y216456D02*X45117Y215078D01*
X46495Y215669D02*X45905Y215079D01*
X45708Y218031D02*X42756Y215079D01*
X44921Y218031D02*X41969Y215079D01*
X44134Y218031D02*X41182Y215079D01*
X43346Y218031D02*X40394Y215079D01*
X42559Y218031D02*X39607Y215079D01*
X41771Y218031D02*X38819Y215079D01*
X40984Y218031D02*X38032Y215079D01*
X40197Y218031D02*X37245Y215079D01*
X39409Y218031D02*X36457Y215079D01*
X38622Y218031D02*X35670Y215079D01*
X37834Y218031D02*X34882Y215079D01*
X37047Y218031D02*X34095Y215079D01*
X36259Y218031D02*X33307Y215078D01*
X35472Y218031D02*X33306Y215865D01*
X34684Y218031D02*X33306Y216653D01*
G54D42*X2204Y169606D02*X3779D01*
X2204Y212913D02*X3779D01*
G54D40*X25236Y134355D02*Y131155D01*
X15236Y134355D02*X25236D01*
X15236D02*Y131155D01*
X25236D01*
X10236Y132755D02*X15236D01*
X25236D02*X30236D01*
X25236Y114355D02*Y111155D01*
X15236Y114355D02*X25236D01*
X15236D02*Y111155D01*
X25236D01*
X10236Y112755D02*X15236D01*
X25236D02*X30236D01*
X50822Y108342D02*G75*G03X39649Y108341I-5586J-5586D01*G01*
X39649Y97169D02*G75*G03X50822Y97168I5586J5586D01*G01*
X49407Y106927D02*G75*G03X41064Y106926I-4171J-4171D01*G01*
X41064Y98584D02*G75*G03X49407Y98583I4171J4171D01*G01*
X61817Y114448D02*X68417D01*
Y134448D02*Y114448D01*
X61817Y134448D02*X68417D01*
X61817D02*Y114448D01*
X65117Y144448D02*Y134448D01*
Y114448D02*Y104448D01*
X145636Y34645D02*X149136D01*
X149636Y35145D01*
Y36145D02*Y35145D01*
Y36145D02*X149136Y36645D01*
X145636D02*X149136D01*
X146136Y37846D02*X145636Y38346D01*
Y39346D02*Y38346D01*
Y39346D02*X146136Y39846D01*
X149136D01*
X149636Y39346D02*X149136Y39846D01*
X149636Y39346D02*Y38346D01*
X149136Y37846D02*X149636Y38346D01*
X147636Y39846D02*Y38346D01*
X316300Y88094D02*Y86094D01*
Y88094D02*X316800Y88594D01*
X317800D01*
X318300Y88094D02*X317800Y88594D01*
X318300Y88094D02*Y86594D01*
X316300D02*X320300D01*
X318300D02*X320300Y88594D01*
Y89795D02*X317800Y92295D01*
X316300D02*X317800D01*
X316300D02*Y89795D01*
X286780Y215846D02*X288280D01*
X286280Y216346D02*X286780Y215846D01*
X286280Y219346D02*Y216346D01*
Y219346D02*X286780Y219846D01*
X288280D01*
X289481Y219346D02*Y216346D01*
Y219346D02*X289981Y219846D01*
X290981D01*
X291481Y219346D01*
Y216346D01*
X290981Y215846D02*X291481Y216346D01*
X289981Y215846D02*X290981D01*
X289481Y216346D02*X289981Y215846D01*
X292682Y219846D02*Y215846D01*
Y219846D02*Y219346D01*
X295182Y216846D01*
Y219846D02*Y215846D01*
X296383Y219846D02*Y215846D01*
Y219846D02*Y219346D01*
X298883Y216846D01*
Y219846D02*Y215846D01*
X300084Y219346D02*X300584Y219846D01*
X301584D01*
X302084Y219346D01*
Y216346D01*
X301584Y215846D02*X302084Y216346D01*
X300584Y215846D02*X301584D01*
X300084Y216346D02*X300584Y215846D01*
Y217846D02*X302084D01*
X300000Y159094D02*Y157594D01*
X296500D02*X300000D01*
X296000Y158094D02*X296500Y157594D01*
X296000Y158594D02*Y158094D01*
X296500Y159094D02*X296000Y158594D01*
X299500Y156393D02*X300000Y155893D01*
Y154393D01*
X299500Y153893D01*
X298500D02*X299500D01*
X296000Y156393D02*X298500Y153893D01*
X296000Y156393D02*Y153893D01*
X276000Y42594D02*X280000D01*
X276000Y44094D02*X276500Y44594D01*
X279500D01*
X280000Y44094D02*X279500Y44594D01*
X280000Y44094D02*Y42094D01*
X276000Y44094D02*Y42094D01*
X280000Y47295D02*Y46295D01*
X276000Y46795D02*X280000D01*
X277000Y45795D02*X276000Y46795D01*
X296300Y88094D02*Y86094D01*
Y88094D02*X296800Y88594D01*
X297800D01*
X298300Y88094D02*X297800Y88594D01*
X298300Y88094D02*Y86594D01*
X296300D02*X300300D01*
X298300D02*X300300Y88594D01*
X296300Y91295D02*X296800Y91795D01*
X296300Y91295D02*Y90295D01*
X296800Y89795D02*X296300Y90295D01*
X296800Y89795D02*X299800D01*
X300300Y90295D01*
X298300Y91295D02*X298800Y91795D01*
X298300Y91295D02*Y89795D01*
X300300Y91295D02*Y90295D01*
Y91295D02*X299800Y91795D01*
X298800D02*X299800D01*
X276300Y88094D02*Y86094D01*
Y88094D02*X276800Y88594D01*
X277800D01*
X278300Y88094D02*X277800Y88594D01*
X278300Y88094D02*Y86594D01*
X276300D02*X280300D01*
X278300D02*X280300Y88594D01*
X276300Y91795D02*Y89795D01*
X278300D01*
X277800Y90295D01*
Y91295D02*Y90295D01*
Y91295D02*X278300Y91795D01*
X279800D01*
X280300Y91295D02*X279800Y91795D01*
X280300Y91295D02*Y90295D01*
X279800Y89795D02*X280300Y90295D01*
X298000Y44594D02*X302000D01*
X298000Y46094D02*X298500Y46594D01*
X301500D01*
X302000Y46094D02*X301500Y46594D01*
X302000Y46094D02*Y44094D01*
X298000Y46094D02*Y44094D01*
X298500Y47795D02*X298000Y48295D01*
Y49795D02*Y48295D01*
Y49795D02*X298500Y50295D01*
X299500D01*
X302000Y47795D02*X299500Y50295D01*
X302000D02*Y47795D01*
X336300Y88094D02*Y86094D01*
Y88094D02*X336800Y88594D01*
X337800D01*
X338300Y88094D02*X337800Y88594D01*
X338300Y88094D02*Y86594D01*
X336300D02*X340300D01*
X338300D02*X340300Y88594D01*
X339800Y89795D02*X340300Y90295D01*
X338800Y89795D02*X339800D01*
X338800D02*X338300Y90295D01*
Y91295D02*Y90295D01*
Y91295D02*X338800Y91795D01*
X339800D01*
X340300Y91295D02*X339800Y91795D01*
X340300Y91295D02*Y90295D01*
X337800Y89795D02*X338300Y90295D01*
X336800Y89795D02*X337800D01*
X336800D02*X336300Y90295D01*
Y91295D02*Y90295D01*
Y91295D02*X336800Y91795D01*
X337800D01*
X338300Y91295D02*X337800Y91795D01*
X330481Y49161D02*X334481D01*
X330481Y50661D02*X330981Y51161D01*
X333981D01*
X334481Y50661D02*X333981Y51161D01*
X334481Y50661D02*Y48661D01*
X330481Y50661D02*Y48661D01*
X332481Y52362D02*X330481Y54362D01*
X332481Y54862D02*Y52362D01*
X330481Y54362D02*X334481D01*
X318000Y44594D02*X322000D01*
X318000Y46094D02*X318500Y46594D01*
X321500D01*
X322000Y46094D02*X321500Y46594D01*
X322000Y46094D02*Y44094D01*
X318000Y46094D02*Y44094D01*
X318500Y47795D02*X318000Y48295D01*
Y49295D02*Y48295D01*
Y49295D02*X318500Y49795D01*
X321500D01*
X322000Y49295D02*X321500Y49795D01*
X322000Y49295D02*Y48295D01*
X321500Y47795D02*X322000Y48295D01*
X320000Y49795D02*Y48295D01*
X335899Y147740D02*X336399Y148240D01*
X335899Y147740D02*Y146240D01*
X336399Y145740D02*X335899Y146240D01*
X336399Y145740D02*X337399D01*
X337899Y146240D01*
Y147740D02*Y146240D01*
Y147740D02*X338399Y148240D01*
X339399D01*
X339899Y147740D02*X339399Y148240D01*
X339899Y147740D02*Y146240D01*
X339399Y145740D02*X339899Y146240D01*
Y150941D02*Y149941D01*
X335899Y150441D02*X339899D01*
X336899Y149441D02*X335899Y150441D01*
X322599Y152740D02*Y150740D01*
Y152740D02*X323099Y153240D01*
X324099D01*
X324599Y152740D02*X324099Y153240D01*
X324599Y152740D02*Y151240D01*
X322599D02*X326599D01*
X324599D02*X326599Y153240D01*
Y155941D02*Y154941D01*
X322599Y155441D02*X326599D01*
X323599Y154441D02*X322599Y155441D01*
X202500Y214094D02*X206000D01*
X202500D02*X202000Y213594D01*
Y212594D01*
X202500Y212094D01*
X206000D01*
X202000Y210393D02*Y209393D01*
Y209893D02*X206000D01*
X205000Y210893D02*X206000Y209893D01*
X198874Y238757D02*X200374D01*
X200874Y238257D02*X200374Y238757D01*
X200874Y238257D02*Y235257D01*
X200374Y234757D01*
X198874D02*X200374D01*
X196173D02*X195673Y235257D01*
X196173Y234757D02*X197173D01*
X197673Y235257D02*X197173Y234757D01*
X197673Y238257D02*Y235257D01*
Y238257D02*X197173Y238757D01*
X196173Y236757D02*X195673Y237257D01*
X196173Y236757D02*X197673D01*
X196173Y238757D02*X197173D01*
X196173D02*X195673Y238257D01*
Y237257D01*
X111252Y190589D02*X113252D01*
X113752Y190089D01*
Y189089D01*
X113252Y188589D02*X113752Y189089D01*
X111752Y188589D02*X113252D01*
X111752Y190589D02*Y186589D01*
Y188589D02*X113752Y186589D01*
X114953Y190089D02*X115453Y190589D01*
X116453D01*
X116953Y190089D01*
Y187089D01*
X116453Y186589D02*X116953Y187089D01*
X115453Y186589D02*X116453D01*
X114953Y187089D02*X115453Y186589D01*
Y188589D02*X116953D01*
X121110Y156791D02*X122610D01*
X120610Y157291D02*X121110Y156791D01*
X120610Y160291D02*Y157291D01*
Y160291D02*X121110Y160791D01*
X122610D01*
X123811Y160291D02*Y157291D01*
Y160291D02*X124311Y160791D01*
X125311D01*
X125811Y160291D01*
Y157291D01*
X125311Y156791D02*X125811Y157291D01*
X124311Y156791D02*X125311D01*
X123811Y157291D02*X124311Y156791D01*
X127012Y160791D02*Y156791D01*
Y160791D02*Y160291D01*
X129512Y157791D01*
Y160791D02*Y156791D01*
X130713Y160791D02*Y156791D01*
Y160791D02*Y160291D01*
X133213Y157791D01*
Y160791D02*Y156791D01*
X134414Y160291D02*X134914Y160791D01*
X136414D01*
X136914Y160291D01*
Y159291D01*
X134414Y156791D02*X136914Y159291D01*
X134414Y156791D02*X136914D01*
X111252Y200589D02*X113252D01*
X113752Y200089D01*
Y199089D01*
X113252Y198589D02*X113752Y199089D01*
X111752Y198589D02*X113252D01*
X111752Y200589D02*Y196589D01*
Y198589D02*X113752Y196589D01*
X114953Y198589D02*X116953Y200589D01*
X114953Y198589D02*X117453D01*
X116953Y200589D02*Y196589D01*
X111252Y210589D02*X113252D01*
X113752Y210089D01*
Y209089D01*
X113252Y208589D02*X113752Y209089D01*
X111752Y208589D02*X113252D01*
X111752Y210589D02*Y206589D01*
Y208589D02*X113752Y206589D01*
X114953Y210089D02*X115453Y210589D01*
X116953D01*
X117453Y210089D01*
Y209089D01*
X114953Y206589D02*X117453Y209089D01*
X114953Y206589D02*X117453D01*
X155000Y224094D02*Y222594D01*
X151500D02*X155000D01*
X151000Y223094D02*X151500Y222594D01*
X151000Y223594D02*Y223094D01*
X151500Y224094D02*X151000Y223594D01*
Y220893D02*Y219893D01*
Y220393D02*X155000D01*
X154000Y221393D02*X155000Y220393D01*
X99346Y42497D02*X100846D01*
X101346Y41997D02*X100846Y42497D01*
X101346Y41997D02*Y38997D01*
X100846Y38497D01*
X99346D02*X100846D01*
X98145Y38997D02*X97645Y38497D01*
X96145D02*X97645D01*
X96145D02*X95645Y38997D01*
Y39997D02*Y38997D01*
X98145Y42497D02*X95645Y39997D01*
Y42497D02*X98145D01*
X99346Y63245D02*X100846D01*
X101346Y62745D02*X100846Y63245D01*
X101346Y62745D02*Y59745D01*
X100846Y59245D01*
X99346D02*X100846D01*
X96645Y63245D02*X97645D01*
X97145D02*Y59245D01*
X98145Y60245D02*X97145Y59245D01*
X86362Y16685D02*Y15185D01*
X85862Y14685D02*X86362Y15185D01*
X82862Y14685D02*X85862D01*
X82862D02*X82362Y15185D01*
Y16685D02*Y15185D01*
X82862Y17886D02*X85862D01*
X82862D02*X82362Y18386D01*
Y19386D02*Y18386D01*
Y19386D02*X82862Y19886D01*
X85862D01*
X86362Y19386D02*X85862Y19886D01*
X86362Y19386D02*Y18386D01*
X85862Y17886D02*X86362Y18386D01*
X82362Y21087D02*X86362D01*
X82362D02*X82862D01*
X85362Y23587D01*
X82362D02*X86362D01*
X82362Y24788D02*X86362D01*
X82362D02*X82862D01*
X85362Y27288D01*
X82362D02*X86362D01*
X84362Y28489D02*X82362Y30489D01*
X84362Y30989D02*Y28489D01*
X82362Y30489D02*X86362D01*
X106803Y2211D02*X108803D01*
X109303Y1711D01*
Y711D01*
X108803Y211D02*X109303Y711D01*
X107303Y211D02*X108803D01*
X107303Y2211D02*Y-1789D01*
Y211D02*X109303Y-1789D01*
X111004D02*X112004D01*
X111504Y2211D02*Y-1789D01*
X110504Y1211D02*X111504Y2211D01*
X113205Y-1289D02*X113705Y-1789D01*
X113205Y1711D02*Y-1289D01*
Y1711D02*X113705Y2211D01*
X114705D01*
X115205Y1711D01*
Y-1289D01*
X114705Y-1789D02*X115205Y-1289D01*
X113705Y-1789D02*X114705D01*
X113205Y-789D02*X115205Y1211D01*
X49441Y2132D02*X51441D01*
X51941Y1632D01*
Y632D01*
X51441Y132D02*X51941Y632D01*
X49941Y132D02*X51441D01*
X49941Y2132D02*Y-1868D01*
Y132D02*X51941Y-1868D01*
X53642D02*X54642D01*
X54142Y2132D02*Y-1868D01*
X53142Y1132D02*X54142Y2132D01*
X56343Y-1868D02*X57343D01*
X56843Y2132D02*Y-1868D01*
X55843Y1132D02*X56843Y2132D01*
X20275Y58243D02*Y57743D01*
X22775Y55243D01*
Y54243D01*
X20275Y55243D02*Y54243D01*
Y55243D02*X22775Y57743D01*
Y58243D02*Y57743D01*
X24476Y54243D02*X25476D01*
X24976Y58243D02*Y54243D01*
X23976Y57243D02*X24976Y58243D01*
X55736Y94755D02*Y90755D01*
X57236Y94755D02*X57736Y94255D01*
Y91255D01*
X57236Y90755D02*X57736Y91255D01*
X55236Y90755D02*X57236D01*
X55236Y94755D02*X57236D01*
X58937D02*X60937D01*
X58937D02*Y92755D01*
X59437Y93255D01*
X60437D01*
X60937Y92755D01*
Y91255D01*
X60437Y90755D02*X60937Y91255D01*
X59437Y90755D02*X60437D01*
X58937Y91255D02*X59437Y90755D01*
X11236Y141355D02*X12736D01*
X13236Y140855D02*X12736Y141355D01*
X13236Y140855D02*Y137855D01*
X12736Y137355D01*
X11236D02*X12736D01*
X10035Y139355D02*X8035Y137355D01*
X7535Y139355D02*X10035D01*
X8035Y141355D02*Y137355D01*
X11236Y121355D02*X12736D01*
X13236Y120855D02*X12736Y121355D01*
X13236Y120855D02*Y117855D01*
X12736Y117355D01*
X11236D02*X12736D01*
X10035Y117855D02*X9535Y117355D01*
X8535D02*X9535D01*
X8535D02*X8035Y117855D01*
Y120855D02*Y117855D01*
X8535Y121355D02*X8035Y120855D01*
X8535Y121355D02*X9535D01*
X10035Y120855D02*X9535Y121355D01*
X8035Y119355D02*X9535D01*
X71417Y138448D02*Y136448D01*
Y138448D02*X71917Y138948D01*
X72917D01*
X73417Y138448D02*X72917Y138948D01*
X73417Y138448D02*Y136948D01*
X71417D02*X75417D01*
X73417D02*X75417Y138948D01*
Y140149D02*X73417Y142149D01*
X71917D02*X73417D01*
X71417Y141649D02*X71917Y142149D01*
X71417Y141649D02*Y140649D01*
X71917Y140149D02*X71417Y140649D01*
X71917Y140149D02*X72917D01*
X73417Y140649D01*
Y142149D02*Y140649D01*
X113842Y82519D02*X117342D01*
X117842Y83019D01*
Y84019D02*Y83019D01*
Y84019D02*X117342Y84519D01*
X113842D02*X117342D01*
X114342Y85720D02*X113842Y86220D01*
Y87720D02*Y86220D01*
Y87720D02*X114342Y88220D01*
X115342D01*
X117842Y85720D02*X115342Y88220D01*
X117842D02*Y85720D01*
X122736Y139155D02*X124236D01*
X122236Y139655D02*X122736Y139155D01*
X122236Y142655D02*Y139655D01*
Y142655D02*X122736Y143155D01*
X124236D01*
X125437D02*X127437D01*
X125437D02*Y141155D01*
X125937Y141655D01*
X126937D01*
X127437Y141155D01*
Y139655D01*
X126937Y139155D02*X127437Y139655D01*
X125937Y139155D02*X126937D01*
X125437Y139655D02*X125937Y139155D01*
G54D43*X33113Y188168D02*X37253D01*
X31733Y189548D02*X33113Y188168D01*
X31733Y197828D02*Y189548D01*
Y197828D02*X33113Y199208D01*
X37253D01*
X40567Y197828D02*Y189548D01*
Y197828D02*X41947Y199208D01*
X44707D01*
X46087Y197828D01*
Y189548D01*
X44707Y188168D02*X46087Y189548D01*
X41947Y188168D02*X44707D01*
X40567Y189548D02*X41947Y188168D01*
X49402Y199208D02*Y188168D01*
Y199208D02*Y197828D01*
X56302Y190928D01*
Y199208D02*Y188168D01*
X59617Y199208D02*Y188168D01*
Y199208D02*Y197828D01*
X66517Y190928D01*
Y199208D02*Y188168D01*
X71212D02*X73972D01*
X72592Y199208D02*Y188168D01*
X69832Y196448D02*X72592Y199208D01*
M02*
