G04 start of page 3 for group 1 idx 1 *
G04 Title: (unknown), solder *
G04 Creator: pcb 20110918 *
G04 CreationDate: Sat 31 Dec 2011 12:16:43 AM GMT UTC *
G04 For: andy *
G04 Format: Gerber/RS-274X *
G04 PCB-Dimensions: 346457 244094 *
G04 PCB-Coordinate-Origin: lower left *
%MOIN*%
%FSLAX25Y25*%
%LNBOTTOM*%
%ADD161C,0.0430*%
%ADD160C,0.0280*%
%ADD159C,0.0380*%
%ADD158C,0.0300*%
%ADD157C,0.0350*%
%ADD156C,0.0650*%
%ADD155C,0.1280*%
%ADD154C,0.0700*%
%ADD153C,0.0600*%
%ADD152C,0.0550*%
%ADD151C,0.0001*%
%ADD150C,0.0250*%
%ADD149C,0.0400*%
G54D149*X330000Y19094D02*X325000Y14094D01*
X320000D01*
X330000Y29094D02*Y19094D01*
X310000Y29094D02*X295000Y14094D01*
X175000D01*
X165000Y24094D01*
X250000Y59094D02*X260000Y69094D01*
X235000Y59094D02*X250000D01*
X235000Y29094D02*X270000D01*
Y54094D02*Y39094D01*
X230000Y19094D02*X280000D01*
X290000Y29094D01*
G54D150*X225000Y59094D02*X235000Y49094D01*
G54D149*Y69094D02*X245000D01*
G54D150*X195000Y74094D02*X210000Y59094D01*
X225000D01*
G54D149*X290000Y54094D02*Y39094D01*
X310000Y54094D02*Y39094D01*
X330000Y54094D02*Y39094D01*
G54D150*X165000Y54094D02*X170000Y59094D01*
X175000D01*
G54D149*X185000Y69094D02*X175000D01*
X245000D02*X250000Y74094D01*
X235000Y149094D02*X250000D01*
X260000Y69094D02*Y74094D01*
Y134094D02*X255000Y129094D01*
X235000Y89094D02*X250000D01*
G54D150*Y139094D02*X245000Y144094D01*
G54D149*X250000Y89094D02*X265000Y104094D01*
G54D150*X260000Y84094D02*X270000Y94094D01*
X230000Y84094D02*X260000D01*
G54D149*X235000Y139094D02*X215000D01*
X175000D02*X200000D01*
G54D150*X275000D02*X250000D01*
X245000Y144094D02*X205000D01*
X180000Y139094D02*X185000Y144094D01*
X190000Y139094D01*
G54D149*X225000Y79094D02*X235000D01*
G54D150*X180000Y114094D02*X205000Y89094D01*
Y84094D01*
X195000Y89094D02*Y74094D01*
G54D149*X319646Y148740D02*X305000Y134094D01*
X300000Y144094D02*X290000D01*
X331299Y148740D02*X319646D01*
X280000Y134094D02*X260000D01*
G54D150*X285000Y139094D02*X290000Y144094D01*
X280000D02*X275000Y139094D01*
G54D149*X331299Y128740D02*X326299D01*
X316299Y118740D01*
X305000Y119094D02*X315945D01*
X316299Y118740D01*
X270000Y94094D02*X330000D01*
X295000D02*X290000Y99094D01*
X285000Y94094D01*
X290000Y134094D02*X305000Y119094D01*
X280000Y124094D02*X275000D01*
X270000Y119094D01*
G54D150*X280000Y124094D02*X285000Y129094D01*
Y139094D01*
G54D149*X205000Y39094D02*X195000Y49094D01*
X175000Y29094D02*X220000D01*
X230000Y19094D01*
X175000Y49094D02*X195000D01*
X165000Y29094D02*X175000Y39094D01*
X165000Y24094D02*Y29094D01*
G54D150*Y49094D02*Y54094D01*
G54D149*X270000Y119094D02*X210000D01*
X165000D02*X200000D01*
X210000Y134094D02*Y119094D01*
X215000Y139094D02*X205000Y129094D01*
X210000Y124094D02*X205000Y129094D01*
G54D150*Y144094D02*X200000Y149094D01*
X190000D01*
X200000Y114094D02*Y119094D01*
G54D149*X170000Y129094D02*X210000D01*
X235000D02*X220000D01*
X185000Y79094D02*X175000D01*
G54D150*X230000Y84094D02*X200000Y114094D01*
X180000Y104094D02*X195000Y89094D01*
G54D149*Y109094D02*X225000Y79094D01*
X99842Y77519D02*X91575D01*
X100000Y64094D02*X110000Y74094D01*
X90000Y64094D02*X100000D01*
X105551Y54645D02*X94015D01*
X68149Y42243D02*X90000Y64094D01*
X68149Y52243D02*X75000Y59094D01*
X65118Y52243D02*X68149D01*
X110000Y74094D02*Y107361D01*
X99842Y97519D02*X86575D01*
Y107519D02*X85000Y109094D01*
X110000Y107361D02*X99842Y117519D01*
X85000Y109094D02*X98267D01*
X99842Y107519D01*
X86575D01*
X131417Y89094D02*X129842Y87519D01*
X128425Y97519D02*X120000Y89094D01*
X125000Y99094D02*X128267D01*
X129842Y97519D01*
X128425D01*
X120000Y99094D02*X125000Y94094D01*
X120000Y104094D02*X125000Y99094D01*
X120000Y104094D02*Y99094D01*
Y139094D02*Y69094D01*
X105551Y54645D01*
X118346D02*X140551D01*
X150000Y64094D01*
X137636Y34645D02*Y41730D01*
X160000Y64094D01*
X137636Y34645D02*X119094D01*
X118346Y33897D01*
X130000Y34094D02*X140000Y44094D01*
G54D150*X160000D02*X165000Y49094D01*
G54D149*X99842Y127519D02*X83425D01*
X80000Y124094D01*
X129842Y127519D02*Y137519D01*
X106339Y147755D02*X68424D01*
X65117Y144448D01*
X120079Y147637D02*X120197Y147755D01*
G54D150*X129842Y107519D02*X141575D01*
X156575Y117519D02*X160000Y114094D01*
X141575Y107519D02*X145000Y104094D01*
X129842Y117519D02*X156575D01*
G54D149*X160000Y149094D02*X157480Y151614D01*
Y153543D01*
X151339Y147755D02*X120197D01*
X65118Y42243D02*X68149D01*
X65118Y32243D02*X65865Y31496D01*
X70866D01*
X94015Y54645D01*
X98346D02*Y33050D01*
X94488Y55118D02*X98425Y51181D01*
X65118Y32243D02*X64371Y31496D01*
X61024D01*
X102362Y23622D02*X98425Y27559D01*
Y23622D02*X102362Y19685D01*
X78740D02*X92362D01*
X98346Y33897D02*Y24854D01*
X102362Y19685D02*Y23068D01*
X253780Y228346D02*X244252D01*
X235000Y219094D01*
X250000Y209094D02*X235000D01*
Y199094D02*X250000D01*
X235000Y189094D02*X250000D01*
X235000Y179094D02*X250000D01*
X263780Y228346D02*Y222874D01*
X250000Y209094D01*
Y199094D02*X273780Y222874D01*
X250000Y189094D02*X283780Y222874D01*
X273780D02*Y228346D01*
X283780Y222874D02*Y228346D01*
X293780D02*Y222874D01*
X303780Y228346D02*Y222874D01*
X313780Y228346D02*Y222874D01*
X323780Y228346D02*Y222874D01*
X250000Y179094D02*X293780Y222874D01*
X250000Y149094D02*X323780Y222874D01*
X250000Y159094D02*X313780Y222874D01*
X250000Y169094D02*X303780Y222874D01*
X275000Y154094D02*X265000Y144094D01*
X235000Y169094D02*X250000D01*
X235000Y159094D02*X250000D01*
X316299Y158740D02*X314646D01*
X300000Y144094D01*
X290000Y154094D02*Y159094D01*
X331299Y157795D02*X320000Y169094D01*
X331299Y148740D02*Y157795D01*
X290000Y159094D02*X300000Y169094D01*
X320000D01*
X280000Y154094D02*X275000D01*
X110000Y219094D02*Y204094D01*
X108110Y169291D02*Y160984D01*
X121339Y147755D02*X108110Y160984D01*
X106339Y147755D02*X115000Y139094D01*
X128267D01*
X129842Y137519D01*
X100000Y234094D02*X105000Y239094D01*
X100000Y204094D02*X125000Y179094D01*
X102440Y191654D02*Y174961D01*
X108110Y169291D01*
X90197D01*
X100000Y204094D02*Y234094D01*
X135669Y159606D02*Y161416D01*
X117205Y196889D02*X110000Y204094D01*
X119252Y196889D02*X117205D01*
X119252Y206889D02*X132795D01*
X112047Y204094D02*X119252Y196889D01*
X110000Y204094D02*X112047D01*
X135000Y219094D02*X130000Y224094D01*
X115000D01*
X110000Y219094D01*
X132795Y206889D02*X135000Y209094D01*
X145000D02*X160000D01*
X70000Y229094D02*X50000Y209094D01*
X75000Y229094D02*X70000D01*
X90000Y184094D02*Y206141D01*
X80000Y174094D02*Y196141D01*
G54D150*X79252Y196889D01*
G54D149*X90000Y206141D02*X79252Y216889D01*
X90197Y169291D02*X75000Y154094D01*
X60000Y164094D02*X70000D01*
X80000Y174094D01*
X50000D02*Y209094D01*
X60000Y164094D02*X50000Y174094D01*
X43661Y132755D02*X45000Y134094D01*
X40236Y122755D02*X30236Y132755D01*
X30000Y112519D02*X30236Y112755D01*
X40236Y102755D02*Y122755D01*
X30236Y132755D02*X43661D01*
X65117Y144448D02*X21929D01*
X75000Y154094D02*X45000D01*
X21929Y144448D02*X10236Y132755D01*
Y112755D01*
X50236Y102755D02*X63424D01*
X65117Y104448D01*
X40236Y102755D02*X41339D01*
X75000Y99094D02*X85000Y109094D01*
X60118Y32243D02*X55118Y37243D01*
X65000Y79094D02*Y62361D01*
X65118Y62243D01*
X55118Y67243D02*X51851D01*
X53267Y59094D02*X55118Y57243D01*
X41339Y102755D02*X65000Y79094D01*
X51851Y67243D02*X30000Y89094D01*
Y112519D01*
X75000Y59094D02*Y99094D01*
X20000Y124094D02*Y64094D01*
X17441Y8432D02*Y42833D01*
X10000Y59094D02*Y99094D01*
X25000Y59094D02*X53267D01*
X55118Y47243D02*X21851D01*
X20000Y64094D02*X25000Y59094D01*
X21851Y47243D02*X10000Y59094D01*
X17441Y42833D02*X21851Y47243D01*
X17441Y42833D02*X15748Y44526D01*
Y51181D01*
X19685Y47244D01*
X290000Y94094D02*Y114094D01*
X270000Y104094D02*X280000Y114094D01*
X265000Y104094D02*X270000D01*
X170000Y129094D02*X151339Y147755D01*
X165000Y119094D02*X156575Y127519D01*
X129842D01*
G54D150*X185000Y154094D02*Y139094D01*
G54D149*X175000Y109094D02*X155000D01*
X175000Y99094D02*X160000D01*
X175000Y89094D02*X131417D01*
G54D150*X145000Y104094D02*X180000D01*
X160000Y114094D02*X180000D01*
G54D149*X175000Y179094D02*X150000D01*
X135000D02*X145000Y189094D01*
X138110Y169291D02*X149803D01*
X150000Y169094D01*
X160000D02*X175000D01*
G54D150*Y159094D02*X180000Y164094D01*
X175000Y149094D02*X185000Y159094D01*
X190000Y199094D02*Y159094D01*
X185000Y154094D01*
Y159094D02*Y169094D01*
X180000Y164094D02*Y174094D01*
X185000Y179094D01*
G54D149*X145000Y219094D02*X156063Y230157D01*
X145000Y189094D02*Y199094D01*
X156063Y230157D02*X197874D01*
X217874D02*Y231220D01*
X210000Y239094D01*
X105000D01*
X155000Y229094D02*X110000D01*
G54D150*X135000Y199094D02*X140000Y204094D01*
X185000D01*
X190000Y199094D01*
G54D149*X125000Y179094D02*X135000D01*
X135669Y161416D02*X130078Y167952D01*
X120000Y171181D02*X118110Y169291D01*
X125000Y179094D02*X120000Y174094D01*
Y171181D01*
X118110Y169291D02*Y165984D01*
X125000Y159094D01*
X157480Y153543D02*X153543Y157480D01*
X137795D01*
X141732D02*X137796Y161416D01*
X135669D01*
X137795Y157480D02*X135669Y159606D01*
G54D151*G36*
X215124Y232907D02*Y227407D01*
X220624D01*
Y232907D01*
X215124D01*
G37*
G54D152*X197874Y230157D03*
G54D153*X145000Y219094D03*
G54D151*G36*
X172000Y222094D02*Y216094D01*
X178000D01*
Y222094D01*
X172000D01*
G37*
G54D153*X145000Y209094D03*
Y199094D03*
X175000Y209094D03*
Y199094D03*
Y189094D03*
Y179094D03*
Y169094D03*
G54D154*X55118Y67243D03*
X65118Y62243D03*
X55118Y57243D03*
X65118Y52243D03*
X55118Y47243D03*
X65118Y42243D03*
X55118Y37243D03*
X65118Y32243D03*
G54D151*G36*
X99362Y22685D02*Y16685D01*
X105362D01*
Y22685D01*
X99362D01*
G37*
G54D153*X92362Y19685D03*
G54D151*G36*
X72053Y11261D02*Y5761D01*
X77553D01*
Y11261D01*
X72053D01*
G37*
G54D152*X114803Y8511D03*
G54D155*X30118Y27243D03*
G54D151*G36*
X14691Y11182D02*Y5682D01*
X20191D01*
Y11182D01*
X14691D01*
G37*
G54D152*X57441Y8432D03*
G54D151*G36*
X76502Y199639D02*Y194139D01*
X82002D01*
Y199639D01*
X76502D01*
G37*
G54D152*X119252Y196889D03*
G54D151*G36*
X76502Y209639D02*Y204139D01*
X82002D01*
Y209639D01*
X76502D01*
G37*
G54D152*X119252Y206889D03*
G54D151*G36*
X76502Y219639D02*Y214139D01*
X82002D01*
Y219639D01*
X76502D01*
G37*
G54D152*X119252Y216889D03*
G54D151*G36*
X132000Y222094D02*Y216094D01*
X138000D01*
Y222094D01*
X132000D01*
G37*
G54D153*X135000Y209094D03*
Y199094D03*
G54D151*G36*
X105267Y172291D02*Y166291D01*
X111267D01*
Y172291D01*
X105267D01*
G37*
G54D153*X118267Y169291D03*
X128267D03*
X138267D03*
G54D155*X30118Y72243D03*
G54D151*G36*
X27486Y135505D02*Y130005D01*
X32986D01*
Y135505D01*
X27486D01*
G37*
G54D152*X10236Y132755D03*
G54D151*G36*
X27486Y115505D02*Y110005D01*
X32986D01*
Y115505D01*
X27486D01*
G37*
G54D152*X10236Y112755D03*
G54D151*G36*
X36986Y106005D02*Y99505D01*
X43486D01*
Y106005D01*
X36986D01*
G37*
G54D156*X50236Y102755D03*
G54D151*G36*
X62367Y107198D02*Y101698D01*
X67867D01*
Y107198D01*
X62367D01*
G37*
G54D152*X65117Y144448D03*
G54D151*G36*
X266750Y32344D02*Y25844D01*
X273250D01*
Y32344D01*
X266750D01*
G37*
G54D156*X270000Y39094D03*
G54D151*G36*
X267250Y56844D02*Y51344D01*
X272750D01*
Y56844D01*
X267250D01*
G37*
G36*
X286750Y32344D02*Y25844D01*
X293250D01*
Y32344D01*
X286750D01*
G37*
G36*
X326750D02*Y25844D01*
X333250D01*
Y32344D01*
X326750D01*
G37*
G36*
X306750D02*Y25844D01*
X313250D01*
Y32344D01*
X306750D01*
G37*
G54D156*X290000Y39094D03*
G54D151*G36*
X287250Y56844D02*Y51344D01*
X292750D01*
Y56844D01*
X287250D01*
G37*
G36*
X327250D02*Y51344D01*
X332750D01*
Y56844D01*
X327250D01*
G37*
G36*
X307250D02*Y51344D01*
X312750D01*
Y56844D01*
X307250D01*
G37*
G54D156*X330000Y39094D03*
X310000D03*
G54D152*X330000Y94094D03*
X310000D03*
X290000D03*
X270000D03*
G54D151*G36*
X277000Y157094D02*Y151094D01*
X283000D01*
Y157094D01*
X277000D01*
G37*
G54D153*X290000Y154094D03*
X280000Y144094D03*
X290000D03*
X280000Y134094D03*
X290000D03*
X280000Y124094D03*
X290000D03*
X280000Y114094D03*
X290000D03*
G54D151*G36*
X313549Y121490D02*Y115990D01*
X319049D01*
Y121490D01*
X313549D01*
G37*
G36*
X328549Y131490D02*Y125990D01*
X334049D01*
Y131490D01*
X328549D01*
G37*
G54D152*X331299Y148740D03*
X316299Y158740D03*
G54D151*G36*
X134636Y37645D02*Y31645D01*
X140636D01*
Y37645D01*
X134636D01*
G37*
G54D153*X137636Y54645D03*
G54D151*G36*
X115596Y36647D02*Y31147D01*
X121096D01*
Y36647D01*
X115596D01*
G37*
G36*
Y57395D02*Y51895D01*
X121096D01*
Y57395D01*
X115596D01*
G37*
G54D152*X98346Y33897D03*
Y54645D03*
G54D153*X99842Y77519D03*
G54D151*G36*
X126842Y80519D02*Y74519D01*
X132842D01*
Y80519D01*
X126842D01*
G37*
G54D153*X129842Y87519D03*
Y97519D03*
Y107519D03*
X99842D03*
Y97519D03*
Y87519D03*
X129842Y117519D03*
X99842D03*
X129842Y127519D03*
Y137519D03*
X99842D03*
Y127519D03*
G54D151*G36*
X102486Y150505D02*Y145005D01*
X107986D01*
Y150505D01*
X102486D01*
G37*
G54D152*X125236Y147755D03*
G54D153*X175000Y159094D03*
Y149094D03*
Y139094D03*
Y129094D03*
Y119094D03*
Y109094D03*
Y99094D03*
Y89094D03*
Y79094D03*
Y69094D03*
Y59094D03*
Y49094D03*
Y39094D03*
Y29094D03*
X235000D03*
Y39094D03*
Y49094D03*
Y59094D03*
Y69094D03*
Y79094D03*
Y89094D03*
Y99094D03*
Y109094D03*
Y119094D03*
Y129094D03*
Y139094D03*
Y149094D03*
Y159094D03*
Y169094D03*
Y179094D03*
Y189094D03*
Y199094D03*
Y209094D03*
Y219094D03*
G54D151*G36*
X250780Y231346D02*Y225346D01*
X256780D01*
Y231346D01*
X250780D01*
G37*
G54D153*X263780Y228346D03*
X273780D03*
X283780D03*
X293780D03*
X303780D03*
X313780D03*
X323780D03*
X205000Y39094D03*
X150000Y64094D03*
X160000D03*
Y44094D03*
X250000Y74094D03*
X205000Y84094D03*
X185000Y79094D03*
X90000D03*
X55000Y89094D03*
X10000Y99094D03*
X86575Y97519D03*
X74803Y98425D03*
X185000Y69094D03*
X78740Y19685D03*
X100000Y64094D03*
X320000Y14094D03*
X305000Y134094D03*
X260000Y74094D03*
X255000Y129094D03*
X80000Y124094D03*
X20000D03*
X220000Y129094D03*
X110000Y229094D03*
X102440Y191654D03*
X75000Y229094D03*
X90000Y184094D03*
X124016Y159448D03*
X45000Y134094D03*
Y154094D03*
X185000Y169094D03*
Y179094D03*
X265000Y144094D03*
X160000Y99094D03*
X155000Y109094D03*
X160000Y209094D03*
X200000Y139094D03*
Y119094D03*
X195000Y109094D03*
X150000Y179094D03*
X160000Y149094D03*
X150000Y169094D03*
X160000D03*
X190000Y149094D03*
G54D157*G54D158*G54D159*G54D160*G54D159*G54D160*G54D158*G54D159*G54D158*G54D155*G54D158*G54D159*G54D155*G54D158*G54D161*G54D158*G54D161*G54D158*G54D161*G54D158*G54D161*G54D158*G54D159*G54D158*G54D160*G54D158*G54D160*G54D158*G54D160*G54D159*M02*
