G04 start of page 12 for group -4062 idx -4062 *
G04 Title: (unknown), soldermask *
G04 Creator: pcb 20100929 *
G04 CreationDate: Thu 24 Nov 2011 04:56:09 PM GMT UTC *
G04 For: andy *
G04 Format: Gerber/RS-274X *
G04 PCB-Dimensions: 346457 244094 *
G04 PCB-Coordinate-Origin: lower left *
%MOIN*%
%FSLAX25Y25*%
%LNBACKMASK*%
%ADD13C,0.0200*%
%ADD30C,0.0610*%
%ADD31C,0.0880*%
%ADD32C,0.0660*%
%ADD33C,0.0750*%
%ADD34C,0.1300*%
%ADD35C,0.0710*%
G54D13*G36*
X76202Y199939D02*Y193839D01*
X82302D01*
Y199939D01*
X76202D01*
G37*
G54D30*X119252Y196889D03*
G54D13*G36*
X103710Y173691D02*Y164891D01*
X112510D01*
Y173691D01*
X103710D01*
G37*
G54D31*X118110Y169291D03*
X128110D03*
X138110D03*
G54D13*G36*
X76202Y209939D02*Y203839D01*
X82302D01*
Y209939D01*
X76202D01*
G37*
G54D30*X119252Y206889D03*
G54D32*X135000Y209094D03*
X145000D03*
X135000Y199094D03*
X145000D03*
G54D13*G36*
X76202Y219939D02*Y213839D01*
X82302D01*
Y219939D01*
X76202D01*
G37*
G54D30*X119252Y216889D03*
G54D13*G36*
X131700Y222394D02*Y215794D01*
X138300D01*
Y222394D01*
X131700D01*
G37*
G54D32*X145000Y219094D03*
G54D33*X55118Y67243D03*
X65118Y62243D03*
X55118Y57243D03*
G54D34*X30118Y72243D03*
G54D13*G36*
X27186Y135805D02*Y129705D01*
X33286D01*
Y135805D01*
X27186D01*
G37*
G54D30*X10236Y132755D03*
G54D13*G36*
X27186Y115805D02*Y109705D01*
X33286D01*
Y115805D01*
X27186D01*
G37*
G54D30*X10236Y112755D03*
G54D34*X30118Y27243D03*
G54D13*G36*
X14391Y11482D02*Y5382D01*
X20491D01*
Y11482D01*
X14391D01*
G37*
G54D30*X57441Y8432D03*
G54D13*G36*
X36686Y106305D02*Y99205D01*
X43786D01*
Y106305D01*
X36686D01*
G37*
G54D35*X50236Y102755D03*
G54D13*G36*
X62067Y107498D02*Y101398D01*
X68167D01*
Y107498D01*
X62067D01*
G37*
G54D30*X65117Y144448D03*
G54D13*G36*
X134336Y37945D02*Y31345D01*
X140936D01*
Y37945D01*
X134336D01*
G37*
G54D32*X137636Y54645D03*
G54D13*G36*
X115296Y36947D02*Y30847D01*
X121396D01*
Y36947D01*
X115296D01*
G37*
G54D33*X65118Y52243D03*
X55118Y47243D03*
X65118Y42243D03*
X55118Y37243D03*
X65118Y32243D03*
G54D30*X98346Y33897D03*
G54D13*G36*
X115296Y57695D02*Y51595D01*
X121396D01*
Y57695D01*
X115296D01*
G37*
G54D30*X98346Y54645D03*
G54D13*G36*
X126542Y80819D02*Y74219D01*
X133142D01*
Y80819D01*
X126542D01*
G37*
G54D32*X99842Y77519D03*
G54D13*G36*
X99062Y22985D02*Y16385D01*
X105662D01*
Y22985D01*
X99062D01*
G37*
G54D30*X114803Y8511D03*
G54D32*X92362Y19685D03*
G54D13*G36*
X71753Y11561D02*Y5461D01*
X77853D01*
Y11561D01*
X71753D01*
G37*
G54D32*X129842Y87519D03*
Y97519D03*
Y107519D03*
Y117519D03*
Y127519D03*
Y137519D03*
X99842D03*
Y127519D03*
G54D13*G36*
X102186Y150805D02*Y144705D01*
X108286D01*
Y150805D01*
X102186D01*
G37*
G54D30*X125236Y147755D03*
G54D32*X99842Y117519D03*
Y107519D03*
Y97519D03*
Y87519D03*
G54D30*X270000Y94094D03*
G54D13*G36*
X276700Y157394D02*Y150794D01*
X283300D01*
Y157394D01*
X276700D01*
G37*
G54D32*X290000Y154094D03*
X280000Y144094D03*
Y134094D03*
Y124094D03*
Y114094D03*
X290000Y144094D03*
Y134094D03*
Y124094D03*
Y114094D03*
G54D13*G36*
X286450Y32644D02*Y25544D01*
X293550D01*
Y32644D01*
X286450D01*
G37*
G54D35*X290000Y39094D03*
G54D13*G36*
X286950Y57144D02*Y51044D01*
X293050D01*
Y57144D01*
X286950D01*
G37*
G36*
X326950D02*Y51044D01*
X333050D01*
Y57144D01*
X326950D01*
G37*
G36*
X326450Y32644D02*Y25544D01*
X333550D01*
Y32644D01*
X326450D01*
G37*
G54D35*X330000Y39094D03*
G54D13*G36*
X328249Y131790D02*Y125690D01*
X334349D01*
Y131790D01*
X328249D01*
G37*
G54D30*X331299Y148740D03*
X330000Y94094D03*
X310000D03*
X290000D03*
G54D13*G36*
X306950Y57144D02*Y51044D01*
X313050D01*
Y57144D01*
X306950D01*
G37*
G36*
X313249Y121790D02*Y115690D01*
X319349D01*
Y121790D01*
X313249D01*
G37*
G54D30*X316299Y158740D03*
G54D13*G36*
X306450Y32644D02*Y25544D01*
X313550D01*
Y32644D01*
X306450D01*
G37*
G54D35*X310000Y39094D03*
G54D13*G36*
X266450Y32644D02*Y25544D01*
X273550D01*
Y32644D01*
X266450D01*
G37*
G54D35*X270000Y39094D03*
G54D13*G36*
X266950Y57144D02*Y51044D01*
X273050D01*
Y57144D01*
X266950D01*
G37*
G54D32*X235000Y29094D03*
Y39094D03*
Y49094D03*
Y59094D03*
Y69094D03*
G54D13*G36*
X249380Y232746D02*Y223946D01*
X258180D01*
Y232746D01*
X249380D01*
G37*
G54D31*X263780Y228346D03*
X273780D03*
X283780D03*
X293780D03*
X303780D03*
X313780D03*
X323780D03*
G54D13*G36*
X214824Y233207D02*Y227107D01*
X220924D01*
Y233207D01*
X214824D01*
G37*
G54D30*X197874Y230157D03*
G54D13*G36*
X171700Y222394D02*Y215794D01*
X178300D01*
Y222394D01*
X171700D01*
G37*
G54D32*X175000Y209094D03*
Y199094D03*
Y189094D03*
Y179094D03*
Y169094D03*
Y159094D03*
Y149094D03*
Y139094D03*
Y129094D03*
Y119094D03*
Y109094D03*
Y99094D03*
Y89094D03*
Y79094D03*
Y69094D03*
Y59094D03*
Y49094D03*
Y39094D03*
Y29094D03*
X235000Y79094D03*
Y89094D03*
Y99094D03*
Y109094D03*
Y119094D03*
Y129094D03*
Y139094D03*
Y149094D03*
Y159094D03*
Y169094D03*
Y179094D03*
Y189094D03*
Y199094D03*
Y209094D03*
Y219094D03*
M02*
